M48
;GenerationSoftware,Autodesk,EAGLE,9.6.1*%
;CreationDate,2024-12-27T18:04:49Z*%
FMAT,2
ICI,OFF
METRIC,TZ,000.000
T6C0.250
T5C0.350
T4C0.500
T3C0.650
T2C1.016
T1C1.020
%
G90
M71
T1
X-6667Y21907
X-6667Y24447
T2
X11747Y13494
X-11589Y11589
X-11589Y16669
X-11589Y14129
T3
X-3441Y20479
X3759Y20479
T4
X4289Y21729
X-3971Y21729
X-4331Y27679
X4649Y27679
T5
X5874Y20218
X-635Y25876
X318Y25876
X-635Y25082
X-635Y24289
X318Y24289
X2699Y14287
X-6450Y1132
X-2800Y4032
X6450Y1132
X-6000Y15607
X-14096Y12749
X-13144Y16718
X-6476Y10844
X-1010Y20641
X1673Y20696
X318Y25082
X3016Y25874
X10795Y19209
X9716Y20605
X-600Y4032
T6
X-6826Y13970
X1705Y4137
X500Y4032
X-1644Y6350
X2064Y7072
X-3900Y4032
X1893Y7779
X952Y16192
X4466Y15378
X-3450Y24074
X4079Y15991
X4719Y17463
X5500Y9843
X9981Y6504
X-9920Y8446
X-3006Y12625
X512Y20638
X-2857Y11112
X-9903Y21759
X55Y22275
X-6826Y13104
X-195Y20638
X762Y22275
X11004Y20094
M30