G04 EAGLE Gerber RS-274X export*
G75*
%MOMM*%
%FSLAX34Y34*%
%LPD*%
%IN*%
%IPPOS*%
%AMOC8*
5,1,8,0,0,1.08239X$1,22.5*%
G01*
%ADD10C,0.254000*%


D10*
X-173200Y150813D02*
X-86600Y813D01*
X86600Y813D01*
X173200Y150813D01*
X86600Y300813D01*
X-86600Y300813D01*
X-173200Y150813D01*
X-35913Y201538D02*
X-32913Y201538D01*
X-32629Y201550D01*
X-32348Y201587D01*
X-32071Y201648D01*
X-31801Y201734D01*
X-31539Y201842D01*
X-31288Y201973D01*
X-31048Y202125D01*
X-30823Y202298D01*
X-30614Y202489D01*
X-30423Y202698D01*
X-30250Y202923D01*
X-30098Y203163D01*
X-29967Y203414D01*
X-29859Y203676D01*
X-29773Y203946D01*
X-29712Y204223D01*
X-29675Y204504D01*
X-29663Y204788D01*
X-29675Y205071D01*
X-29712Y205352D01*
X-29773Y205629D01*
X-29859Y205899D01*
X-29967Y206161D01*
X-30098Y206413D01*
X-30250Y206652D01*
X-30423Y206877D01*
X-30614Y207086D01*
X-30823Y207277D01*
X-31048Y207450D01*
X-31288Y207602D01*
X-31539Y207733D01*
X-31801Y207842D01*
X-32071Y207927D01*
X-32348Y207988D01*
X-32629Y208025D01*
X-32913Y208038D01*
X-35913Y208038D01*
X-36196Y208025D01*
X-36477Y207988D01*
X-36754Y207927D01*
X-37024Y207842D01*
X-37286Y207733D01*
X-37538Y207602D01*
X-37777Y207450D01*
X-38002Y207277D01*
X-38211Y207086D01*
X-38402Y206877D01*
X-38575Y206652D01*
X-38727Y206413D01*
X-38858Y206161D01*
X-38967Y205899D01*
X-39052Y205629D01*
X-39113Y205352D01*
X-39150Y205071D01*
X-39163Y204788D01*
X-39150Y204504D01*
X-39113Y204223D01*
X-39052Y203946D01*
X-38967Y203676D01*
X-38858Y203414D01*
X-38727Y203163D01*
X-38575Y202923D01*
X-38402Y202698D01*
X-38211Y202489D01*
X-38002Y202298D01*
X-37777Y202125D01*
X-37538Y201973D01*
X-37286Y201842D01*
X-37024Y201734D01*
X-36754Y201648D01*
X-36477Y201587D01*
X-36196Y201550D01*
X-35913Y201538D01*
X-45813Y273788D02*
X-45803Y273570D01*
X-45775Y273353D01*
X-45727Y273140D01*
X-45662Y272932D01*
X-45578Y272731D01*
X-45478Y272538D01*
X-45360Y272354D01*
X-45228Y272181D01*
X-45080Y272020D01*
X-44919Y271872D01*
X-44746Y271740D01*
X-44563Y271622D01*
X-44369Y271522D01*
X-44168Y271438D01*
X-43960Y271373D01*
X-43747Y271325D01*
X-43530Y271297D01*
X-43313Y271288D01*
X-43095Y271297D01*
X-42878Y271325D01*
X-42665Y271373D01*
X-42457Y271438D01*
X-42256Y271522D01*
X-42063Y271622D01*
X-41879Y271740D01*
X-41706Y271872D01*
X-41545Y272020D01*
X-41397Y272181D01*
X-41265Y272354D01*
X-41147Y272538D01*
X-41047Y272731D01*
X-40963Y272932D01*
X-40898Y273140D01*
X-40850Y273353D01*
X-40822Y273570D01*
X-40813Y273788D01*
X-40813Y279788D01*
X-40822Y280005D01*
X-40850Y280222D01*
X-40898Y280435D01*
X-40963Y280643D01*
X-41047Y280844D01*
X-41147Y281038D01*
X-41265Y281221D01*
X-41397Y281394D01*
X-41545Y281555D01*
X-41706Y281703D01*
X-41879Y281835D01*
X-42063Y281953D01*
X-42256Y282053D01*
X-42457Y282137D01*
X-42665Y282202D01*
X-42878Y282250D01*
X-43095Y282278D01*
X-43313Y282288D01*
X-43530Y282278D01*
X-43747Y282250D01*
X-43960Y282202D01*
X-44168Y282137D01*
X-44369Y282053D01*
X-44563Y281953D01*
X-44746Y281835D01*
X-44919Y281703D01*
X-45080Y281555D01*
X-45228Y281394D01*
X-45360Y281221D01*
X-45478Y281038D01*
X-45578Y280844D01*
X-45662Y280643D01*
X-45727Y280435D01*
X-45775Y280222D01*
X-45803Y280005D01*
X-45813Y279788D01*
X-45813Y273788D01*
X43988Y273788D02*
X43997Y273570D01*
X44025Y273353D01*
X44073Y273140D01*
X44138Y272932D01*
X44222Y272731D01*
X44322Y272538D01*
X44440Y272354D01*
X44572Y272181D01*
X44720Y272020D01*
X44881Y271872D01*
X45054Y271740D01*
X45238Y271622D01*
X45431Y271522D01*
X45632Y271438D01*
X45840Y271373D01*
X46053Y271325D01*
X46270Y271297D01*
X46488Y271288D01*
X46705Y271297D01*
X46922Y271325D01*
X47135Y271373D01*
X47343Y271438D01*
X47544Y271522D01*
X47738Y271622D01*
X47921Y271740D01*
X48094Y271872D01*
X48255Y272020D01*
X48403Y272181D01*
X48535Y272354D01*
X48653Y272538D01*
X48753Y272731D01*
X48837Y272932D01*
X48902Y273140D01*
X48950Y273353D01*
X48978Y273570D01*
X48988Y273788D01*
X48988Y279788D01*
X48978Y280005D01*
X48950Y280222D01*
X48902Y280435D01*
X48837Y280643D01*
X48753Y280844D01*
X48653Y281038D01*
X48535Y281221D01*
X48403Y281394D01*
X48255Y281555D01*
X48094Y281703D01*
X47921Y281835D01*
X47738Y281953D01*
X47544Y282053D01*
X47343Y282137D01*
X47135Y282202D01*
X46922Y282250D01*
X46705Y282278D01*
X46488Y282288D01*
X46270Y282278D01*
X46053Y282250D01*
X45840Y282202D01*
X45632Y282137D01*
X45431Y282053D01*
X45238Y281953D01*
X45054Y281835D01*
X44881Y281703D01*
X44720Y281555D01*
X44572Y281394D01*
X44440Y281221D01*
X44322Y281038D01*
X44222Y280844D01*
X44138Y280643D01*
X44073Y280435D01*
X44025Y280222D01*
X43997Y280005D01*
X43988Y279788D01*
X43988Y273788D01*
X-42213Y214288D02*
X-42203Y214070D01*
X-42175Y213853D01*
X-42127Y213640D01*
X-42062Y213432D01*
X-41978Y213231D01*
X-41878Y213038D01*
X-41760Y212854D01*
X-41628Y212681D01*
X-41480Y212520D01*
X-41319Y212372D01*
X-41146Y212240D01*
X-40963Y212122D01*
X-40769Y212022D01*
X-40568Y211938D01*
X-40360Y211873D01*
X-40147Y211825D01*
X-39930Y211797D01*
X-39713Y211788D01*
X-39495Y211797D01*
X-39278Y211825D01*
X-39065Y211873D01*
X-38857Y211938D01*
X-38656Y212022D01*
X-38463Y212122D01*
X-38279Y212240D01*
X-38106Y212372D01*
X-37945Y212520D01*
X-37797Y212681D01*
X-37665Y212854D01*
X-37547Y213038D01*
X-37447Y213231D01*
X-37363Y213432D01*
X-37298Y213640D01*
X-37250Y213853D01*
X-37222Y214070D01*
X-37213Y214288D01*
X-37213Y220288D01*
X-37222Y220505D01*
X-37250Y220722D01*
X-37298Y220935D01*
X-37363Y221143D01*
X-37447Y221344D01*
X-37547Y221538D01*
X-37665Y221721D01*
X-37797Y221894D01*
X-37945Y222055D01*
X-38106Y222203D01*
X-38279Y222335D01*
X-38463Y222453D01*
X-38656Y222553D01*
X-38857Y222637D01*
X-39065Y222702D01*
X-39278Y222750D01*
X-39495Y222778D01*
X-39713Y222788D01*
X-39930Y222778D01*
X-40147Y222750D01*
X-40360Y222702D01*
X-40568Y222637D01*
X-40769Y222553D01*
X-40963Y222453D01*
X-41146Y222335D01*
X-41319Y222203D01*
X-41480Y222055D01*
X-41628Y221894D01*
X-41760Y221721D01*
X-41878Y221538D01*
X-41978Y221344D01*
X-42062Y221143D01*
X-42127Y220935D01*
X-42175Y220722D01*
X-42203Y220505D01*
X-42213Y220288D01*
X-42213Y214288D01*
X40388Y214288D02*
X40397Y214070D01*
X40425Y213853D01*
X40473Y213640D01*
X40538Y213432D01*
X40622Y213231D01*
X40722Y213038D01*
X40840Y212854D01*
X40972Y212681D01*
X41120Y212520D01*
X41281Y212372D01*
X41454Y212240D01*
X41638Y212122D01*
X41831Y212022D01*
X42032Y211938D01*
X42240Y211873D01*
X42453Y211825D01*
X42670Y211797D01*
X42888Y211788D01*
X43105Y211797D01*
X43322Y211825D01*
X43535Y211873D01*
X43743Y211938D01*
X43944Y212022D01*
X44138Y212122D01*
X44321Y212240D01*
X44494Y212372D01*
X44655Y212520D01*
X44803Y212681D01*
X44935Y212854D01*
X45053Y213038D01*
X45153Y213231D01*
X45237Y213432D01*
X45302Y213640D01*
X45350Y213853D01*
X45378Y214070D01*
X45388Y214288D01*
X45388Y220288D01*
X45378Y220505D01*
X45350Y220722D01*
X45302Y220935D01*
X45237Y221143D01*
X45153Y221344D01*
X45053Y221538D01*
X44935Y221721D01*
X44803Y221894D01*
X44655Y222055D01*
X44494Y222203D01*
X44321Y222335D01*
X44138Y222453D01*
X43944Y222553D01*
X43743Y222637D01*
X43535Y222702D01*
X43322Y222750D01*
X43105Y222778D01*
X42888Y222788D01*
X42670Y222778D01*
X42453Y222750D01*
X42240Y222702D01*
X42032Y222637D01*
X41831Y222553D01*
X41638Y222453D01*
X41454Y222335D01*
X41281Y222203D01*
X41120Y222055D01*
X40972Y221894D01*
X40840Y221721D01*
X40722Y221538D01*
X40622Y221344D01*
X40538Y221143D01*
X40473Y220935D01*
X40425Y220722D01*
X40397Y220505D01*
X40388Y220288D01*
X40388Y214288D01*
X34338Y205001D02*
X34393Y205423D01*
X34503Y205834D01*
X34666Y206228D01*
X34879Y206597D01*
X35139Y206935D01*
X35440Y207236D01*
X35778Y207496D01*
X36147Y207709D01*
X36541Y207872D01*
X36952Y207982D01*
X37374Y208038D01*
X37801Y208038D01*
X38223Y207982D01*
X38634Y207872D01*
X39028Y207709D01*
X39397Y207496D01*
X39735Y207236D01*
X40036Y206935D01*
X40296Y206597D01*
X40509Y206228D01*
X40672Y205834D01*
X40782Y205423D01*
X40838Y205001D01*
X40838Y204574D01*
X40782Y204152D01*
X40672Y203741D01*
X40509Y203347D01*
X40296Y202978D01*
X40036Y202640D01*
X39735Y202339D01*
X39397Y202079D01*
X39028Y201866D01*
X38634Y201703D01*
X38223Y201593D01*
X37801Y201538D01*
X37374Y201538D01*
X36952Y201593D01*
X36541Y201703D01*
X36147Y201866D01*
X35778Y202079D01*
X35440Y202339D01*
X35139Y202640D01*
X34879Y202978D01*
X34666Y203347D01*
X34503Y203741D01*
X34393Y204152D01*
X34338Y204574D01*
X34338Y205001D01*
X-37663Y205001D02*
X-37607Y205423D01*
X-37497Y205834D01*
X-37334Y206228D01*
X-37121Y206597D01*
X-36861Y206935D01*
X-36560Y207236D01*
X-36222Y207496D01*
X-35853Y207709D01*
X-35459Y207872D01*
X-35048Y207982D01*
X-34626Y208038D01*
X-34199Y208038D01*
X-33777Y207982D01*
X-33366Y207872D01*
X-32972Y207709D01*
X-32603Y207496D01*
X-32265Y207236D01*
X-31964Y206935D01*
X-31704Y206597D01*
X-31491Y206228D01*
X-31328Y205834D01*
X-31218Y205423D01*
X-31163Y205001D01*
X-31163Y204574D01*
X-31218Y204152D01*
X-31328Y203741D01*
X-31491Y203347D01*
X-31704Y202978D01*
X-31964Y202640D01*
X-32265Y202339D01*
X-32603Y202079D01*
X-32972Y201866D01*
X-33366Y201703D01*
X-33777Y201593D01*
X-34199Y201538D01*
X-34626Y201538D01*
X-35048Y201593D01*
X-35459Y201703D01*
X-35853Y201866D01*
X-36222Y202079D01*
X-36560Y202339D01*
X-36861Y202640D01*
X-37121Y202978D01*
X-37334Y203347D01*
X-37497Y203741D01*
X-37607Y204152D01*
X-37663Y204574D01*
X-37663Y205001D01*
M02*
