G04 EAGLE Gerber RS-274X export*
G75*
%MOMM*%
%FSLAX34Y34*%
%LPD*%
%INSilkscreen Top*%
%IPPOS*%
%AMOC8*
5,1,8,0,0,1.08239X$1,22.5*%
G01*
%ADD10C,0.152400*%
%ADD11C,0.101600*%
%ADD12R,0.259075X0.015238*%
%ADD13R,1.310638X0.015238*%
%ADD14R,0.015238X0.015238*%
%ADD15R,0.304800X0.015238*%
%ADD16R,1.356356X0.015238*%
%ADD17R,0.335275X0.015238*%
%ADD18R,1.402075X0.015238*%
%ADD19R,0.365756X0.015238*%
%ADD20R,1.417319X0.015238*%
%ADD21R,0.381000X0.015238*%
%ADD22R,1.447800X0.015238*%
%ADD23R,0.396238X0.015238*%
%ADD24R,1.463037X0.015238*%
%ADD25R,0.411475X0.015238*%
%ADD26R,1.478275X0.015238*%
%ADD27R,0.426719X0.015238*%
%ADD28R,1.493519X0.015238*%
%ADD29R,0.441956X0.015238*%
%ADD30R,1.508756X0.015238*%
%ADD31R,0.457200X0.015238*%
%ADD32R,1.524000X0.015238*%
%ADD33R,0.472438X0.015238*%
%ADD34R,1.539238X0.015238*%
%ADD35R,0.487675X0.015238*%
%ADD36R,1.554475X0.015238*%
%ADD37R,0.502919X0.015238*%
%ADD38R,1.569719X0.015238*%
%ADD39R,0.518156X0.015238*%
%ADD40R,1.584956X0.015238*%
%ADD41R,0.533400X0.015238*%
%ADD42R,1.600200X0.015238*%
%ADD43R,0.548638X0.015238*%
%ADD44R,1.615438X0.015238*%
%ADD45R,0.563875X0.015238*%
%ADD46R,1.630675X0.015238*%
%ADD47R,0.579119X0.015238*%
%ADD48R,1.645919X0.015238*%
%ADD49R,0.594356X0.015238*%
%ADD50R,1.661156X0.015238*%
%ADD51R,0.609600X0.015238*%
%ADD52R,1.676400X0.015238*%
%ADD53R,0.624838X0.015238*%
%ADD54R,1.691638X0.015238*%
%ADD55R,0.640075X0.015238*%
%ADD56R,1.706875X0.015238*%
%ADD57R,0.655319X0.015238*%
%ADD58R,1.722119X0.015238*%
%ADD59R,0.670556X0.015238*%
%ADD60R,1.737356X0.015238*%
%ADD61R,0.685800X0.015238*%
%ADD62R,1.752600X0.015238*%
%ADD63R,0.701037X0.015238*%
%ADD64R,0.716275X0.015238*%
%ADD65R,0.731519X0.015238*%
%ADD66R,1.767838X0.015238*%
%ADD67R,1.783075X0.015238*%
%ADD68R,0.746756X0.015238*%
%ADD69R,1.798319X0.015238*%
%ADD70R,0.030481X0.015238*%
%ADD71R,0.762000X0.015238*%
%ADD72R,0.807719X0.015238*%
%ADD73R,0.868681X0.015238*%
%ADD74R,0.777238X0.015238*%
%ADD75R,0.853438X0.015238*%
%ADD76R,0.838200X0.015238*%
%ADD77R,0.792475X0.015238*%
%ADD78R,0.822963X0.015238*%
%ADD79R,0.822956X0.015238*%
%ADD80R,0.868675X0.015238*%
%ADD81R,0.883919X0.015238*%
%ADD82R,0.899156X0.015238*%
%ADD83R,0.914400X0.015238*%
%ADD84R,0.929638X0.015238*%
%ADD85R,0.944875X0.015238*%
%ADD86R,0.960119X0.015238*%
%ADD87R,0.975356X0.015238*%
%ADD88R,0.990600X0.015238*%
%ADD89R,1.005837X0.015238*%
%ADD90R,1.021075X0.015238*%
%ADD91R,1.036319X0.015238*%
%ADD92R,1.051556X0.015238*%
%ADD93R,1.066800X0.015238*%
%ADD94R,1.082037X0.015238*%
%ADD95R,1.097275X0.015238*%
%ADD96R,1.112519X0.015238*%
%ADD97R,1.127756X0.015238*%
%ADD98R,1.143000X0.015238*%
%ADD99R,1.158238X0.015238*%
%ADD100R,1.173475X0.015238*%
%ADD101R,1.188719X0.015238*%
%ADD102R,1.203956X0.015238*%
%ADD103R,1.219200X0.015238*%
%ADD104R,1.234438X0.015238*%
%ADD105R,1.249675X0.015238*%
%ADD106R,1.264919X0.015238*%
%ADD107R,1.280156X0.015238*%
%ADD108R,1.295400X0.015238*%
%ADD109R,1.325875X0.015238*%
%ADD110R,0.670563X0.015238*%
%ADD111R,1.341119X0.015238*%
%ADD112R,1.371600X0.015238*%
%ADD113R,1.386838X0.015238*%
%ADD114R,0.045719X0.015238*%
%ADD115R,0.060956X0.015238*%
%ADD116R,1.432556X0.015238*%
%ADD117R,0.106681X0.015238*%
%ADD118R,0.121919X0.015238*%
%ADD119R,0.152400X0.015238*%
%ADD120R,0.182875X0.015238*%
%ADD121R,0.030475X0.015238*%
%ADD122R,0.213363X0.015238*%
%ADD123R,0.076200X0.015238*%
%ADD124R,0.320038X0.015238*%
%ADD125R,0.243838X0.015238*%
%ADD126R,0.106675X0.015238*%
%ADD127R,0.274319X0.015238*%
%ADD128R,0.259081X0.015238*%
%ADD129R,0.198119X0.015238*%
%ADD130R,0.228600X0.015238*%
%ADD131C,0.127000*%
%ADD132C,0.200000*%
%ADD133C,0.076200*%


D10*
X-90438Y132525D02*
X-94051Y132525D01*
X-94169Y132527D01*
X-94287Y132533D01*
X-94405Y132542D01*
X-94522Y132556D01*
X-94639Y132573D01*
X-94756Y132594D01*
X-94871Y132619D01*
X-94986Y132648D01*
X-95100Y132681D01*
X-95212Y132717D01*
X-95323Y132757D01*
X-95433Y132800D01*
X-95542Y132847D01*
X-95649Y132897D01*
X-95754Y132952D01*
X-95857Y133009D01*
X-95958Y133070D01*
X-96058Y133134D01*
X-96155Y133201D01*
X-96250Y133271D01*
X-96342Y133345D01*
X-96433Y133421D01*
X-96520Y133501D01*
X-96605Y133583D01*
X-96687Y133668D01*
X-96767Y133755D01*
X-96843Y133846D01*
X-96917Y133938D01*
X-96987Y134033D01*
X-97054Y134130D01*
X-97118Y134230D01*
X-97179Y134331D01*
X-97236Y134434D01*
X-97291Y134539D01*
X-97341Y134646D01*
X-97388Y134755D01*
X-97431Y134865D01*
X-97471Y134976D01*
X-97507Y135088D01*
X-97540Y135202D01*
X-97569Y135317D01*
X-97594Y135432D01*
X-97615Y135549D01*
X-97632Y135666D01*
X-97646Y135783D01*
X-97655Y135901D01*
X-97661Y136019D01*
X-97663Y136137D01*
X-97663Y145168D01*
X-97661Y145286D01*
X-97655Y145404D01*
X-97646Y145522D01*
X-97632Y145639D01*
X-97615Y145756D01*
X-97594Y145873D01*
X-97569Y145988D01*
X-97540Y146103D01*
X-97507Y146217D01*
X-97471Y146329D01*
X-97431Y146440D01*
X-97388Y146550D01*
X-97341Y146659D01*
X-97291Y146766D01*
X-97236Y146871D01*
X-97179Y146974D01*
X-97118Y147075D01*
X-97054Y147175D01*
X-96987Y147272D01*
X-96917Y147367D01*
X-96843Y147459D01*
X-96767Y147550D01*
X-96687Y147637D01*
X-96605Y147722D01*
X-96520Y147804D01*
X-96433Y147884D01*
X-96342Y147960D01*
X-96250Y148034D01*
X-96155Y148104D01*
X-96058Y148171D01*
X-95958Y148235D01*
X-95857Y148296D01*
X-95754Y148353D01*
X-95649Y148408D01*
X-95542Y148458D01*
X-95433Y148505D01*
X-95323Y148548D01*
X-95212Y148588D01*
X-95100Y148624D01*
X-94986Y148657D01*
X-94871Y148686D01*
X-94756Y148711D01*
X-94639Y148732D01*
X-94522Y148749D01*
X-94405Y148763D01*
X-94287Y148772D01*
X-94169Y148778D01*
X-94051Y148780D01*
X-94051Y148781D02*
X-90438Y148781D01*
X-97663Y123381D02*
X-97663Y107125D01*
X-97663Y123381D02*
X-93147Y123381D01*
X-93016Y123379D01*
X-92884Y123373D01*
X-92753Y123364D01*
X-92623Y123350D01*
X-92492Y123333D01*
X-92363Y123312D01*
X-92234Y123288D01*
X-92106Y123259D01*
X-91978Y123227D01*
X-91852Y123191D01*
X-91727Y123152D01*
X-91602Y123109D01*
X-91480Y123062D01*
X-91358Y123012D01*
X-91238Y122958D01*
X-91120Y122901D01*
X-91004Y122840D01*
X-90889Y122776D01*
X-90776Y122709D01*
X-90665Y122638D01*
X-90557Y122564D01*
X-90450Y122487D01*
X-90346Y122407D01*
X-90244Y122324D01*
X-90145Y122239D01*
X-90048Y122150D01*
X-89954Y122058D01*
X-89862Y121964D01*
X-89773Y121867D01*
X-89688Y121768D01*
X-89605Y121666D01*
X-89525Y121562D01*
X-89448Y121455D01*
X-89374Y121347D01*
X-89303Y121236D01*
X-89236Y121123D01*
X-89172Y121008D01*
X-89111Y120892D01*
X-89054Y120774D01*
X-89000Y120654D01*
X-88950Y120532D01*
X-88903Y120410D01*
X-88860Y120285D01*
X-88821Y120160D01*
X-88785Y120034D01*
X-88753Y119906D01*
X-88724Y119778D01*
X-88700Y119649D01*
X-88679Y119520D01*
X-88662Y119389D01*
X-88648Y119259D01*
X-88639Y119128D01*
X-88633Y118996D01*
X-88631Y118865D01*
X-88632Y118865D02*
X-88632Y111640D01*
X-88631Y111640D02*
X-88633Y111509D01*
X-88639Y111377D01*
X-88648Y111246D01*
X-88662Y111116D01*
X-88679Y110985D01*
X-88700Y110856D01*
X-88724Y110727D01*
X-88753Y110599D01*
X-88785Y110471D01*
X-88821Y110345D01*
X-88860Y110220D01*
X-88903Y110095D01*
X-88950Y109973D01*
X-89000Y109851D01*
X-89054Y109731D01*
X-89111Y109613D01*
X-89172Y109497D01*
X-89236Y109382D01*
X-89303Y109269D01*
X-89374Y109158D01*
X-89448Y109050D01*
X-89525Y108943D01*
X-89605Y108839D01*
X-89688Y108737D01*
X-89773Y108638D01*
X-89862Y108541D01*
X-89954Y108447D01*
X-90048Y108355D01*
X-90145Y108266D01*
X-90244Y108181D01*
X-90346Y108098D01*
X-90450Y108018D01*
X-90557Y107941D01*
X-90665Y107867D01*
X-90776Y107796D01*
X-90889Y107729D01*
X-91004Y107665D01*
X-91120Y107604D01*
X-91238Y107547D01*
X-91358Y107493D01*
X-91480Y107443D01*
X-91602Y107396D01*
X-91727Y107353D01*
X-91852Y107314D01*
X-91978Y107278D01*
X-92106Y107246D01*
X-92234Y107217D01*
X-92363Y107193D01*
X-92492Y107172D01*
X-92623Y107155D01*
X-92753Y107141D01*
X-92884Y107132D01*
X-93016Y107126D01*
X-93147Y107124D01*
X-93147Y107125D02*
X-97663Y107125D01*
D11*
X-140208Y136137D02*
X-140208Y139383D01*
X-140210Y139496D01*
X-140216Y139609D01*
X-140226Y139722D01*
X-140240Y139835D01*
X-140257Y139947D01*
X-140279Y140058D01*
X-140304Y140168D01*
X-140334Y140278D01*
X-140367Y140386D01*
X-140404Y140493D01*
X-140444Y140599D01*
X-140489Y140703D01*
X-140537Y140806D01*
X-140588Y140907D01*
X-140643Y141006D01*
X-140701Y141103D01*
X-140763Y141198D01*
X-140828Y141291D01*
X-140896Y141381D01*
X-140967Y141469D01*
X-141042Y141555D01*
X-141119Y141638D01*
X-141199Y141718D01*
X-141282Y141795D01*
X-141368Y141870D01*
X-141456Y141941D01*
X-141546Y142009D01*
X-141639Y142074D01*
X-141734Y142136D01*
X-141831Y142194D01*
X-141930Y142249D01*
X-142031Y142300D01*
X-142134Y142348D01*
X-142238Y142393D01*
X-142344Y142433D01*
X-142451Y142470D01*
X-142559Y142503D01*
X-142669Y142533D01*
X-142779Y142558D01*
X-142890Y142580D01*
X-143002Y142597D01*
X-143115Y142611D01*
X-143228Y142621D01*
X-143341Y142627D01*
X-143454Y142629D01*
X-143567Y142627D01*
X-143680Y142621D01*
X-143793Y142611D01*
X-143906Y142597D01*
X-144018Y142580D01*
X-144129Y142558D01*
X-144239Y142533D01*
X-144349Y142503D01*
X-144457Y142470D01*
X-144564Y142433D01*
X-144670Y142393D01*
X-144774Y142348D01*
X-144877Y142300D01*
X-144978Y142249D01*
X-145077Y142194D01*
X-145174Y142136D01*
X-145269Y142074D01*
X-145362Y142009D01*
X-145452Y141941D01*
X-145540Y141870D01*
X-145626Y141795D01*
X-145709Y141718D01*
X-145789Y141638D01*
X-145866Y141555D01*
X-145941Y141469D01*
X-146012Y141381D01*
X-146080Y141291D01*
X-146145Y141198D01*
X-146207Y141103D01*
X-146265Y141006D01*
X-146320Y140907D01*
X-146371Y140806D01*
X-146419Y140703D01*
X-146464Y140599D01*
X-146504Y140493D01*
X-146541Y140386D01*
X-146574Y140278D01*
X-146604Y140168D01*
X-146629Y140058D01*
X-146651Y139947D01*
X-146668Y139835D01*
X-146682Y139722D01*
X-146692Y139609D01*
X-146698Y139496D01*
X-146700Y139383D01*
X-151892Y140032D02*
X-151892Y136137D01*
X-151892Y140032D02*
X-151890Y140133D01*
X-151884Y140233D01*
X-151874Y140333D01*
X-151861Y140433D01*
X-151843Y140532D01*
X-151822Y140631D01*
X-151797Y140728D01*
X-151768Y140825D01*
X-151735Y140920D01*
X-151699Y141014D01*
X-151659Y141106D01*
X-151616Y141197D01*
X-151569Y141286D01*
X-151519Y141373D01*
X-151465Y141459D01*
X-151408Y141542D01*
X-151348Y141622D01*
X-151285Y141701D01*
X-151218Y141777D01*
X-151149Y141850D01*
X-151077Y141920D01*
X-151003Y141988D01*
X-150926Y142053D01*
X-150846Y142114D01*
X-150764Y142173D01*
X-150680Y142228D01*
X-150594Y142280D01*
X-150506Y142329D01*
X-150416Y142374D01*
X-150324Y142416D01*
X-150231Y142454D01*
X-150136Y142488D01*
X-150041Y142519D01*
X-149944Y142546D01*
X-149846Y142569D01*
X-149747Y142589D01*
X-149647Y142604D01*
X-149547Y142616D01*
X-149447Y142624D01*
X-149346Y142628D01*
X-149246Y142628D01*
X-149145Y142624D01*
X-149045Y142616D01*
X-148945Y142604D01*
X-148845Y142589D01*
X-148746Y142569D01*
X-148648Y142546D01*
X-148551Y142519D01*
X-148456Y142488D01*
X-148361Y142454D01*
X-148268Y142416D01*
X-148176Y142374D01*
X-148086Y142329D01*
X-147998Y142280D01*
X-147912Y142228D01*
X-147828Y142173D01*
X-147746Y142114D01*
X-147666Y142053D01*
X-147589Y141988D01*
X-147515Y141920D01*
X-147443Y141850D01*
X-147374Y141777D01*
X-147307Y141701D01*
X-147244Y141622D01*
X-147184Y141542D01*
X-147127Y141459D01*
X-147073Y141373D01*
X-147023Y141286D01*
X-146976Y141197D01*
X-146933Y141106D01*
X-146893Y141014D01*
X-146857Y140920D01*
X-146824Y140825D01*
X-146795Y140728D01*
X-146770Y140631D01*
X-146749Y140532D01*
X-146731Y140433D01*
X-146718Y140333D01*
X-146708Y140233D01*
X-146702Y140133D01*
X-146700Y140032D01*
X-146699Y140032D02*
X-146699Y137435D01*
X-151892Y146918D02*
X-140208Y150813D01*
X-151892Y154707D01*
X-140208Y158997D02*
X-140208Y162242D01*
X-140210Y162355D01*
X-140216Y162468D01*
X-140226Y162581D01*
X-140240Y162694D01*
X-140257Y162806D01*
X-140279Y162917D01*
X-140304Y163027D01*
X-140334Y163137D01*
X-140367Y163245D01*
X-140404Y163352D01*
X-140444Y163458D01*
X-140489Y163562D01*
X-140537Y163665D01*
X-140588Y163766D01*
X-140643Y163865D01*
X-140701Y163962D01*
X-140763Y164057D01*
X-140828Y164150D01*
X-140896Y164240D01*
X-140967Y164328D01*
X-141042Y164414D01*
X-141119Y164497D01*
X-141199Y164577D01*
X-141282Y164654D01*
X-141368Y164729D01*
X-141456Y164800D01*
X-141546Y164868D01*
X-141639Y164933D01*
X-141734Y164995D01*
X-141831Y165053D01*
X-141930Y165108D01*
X-142031Y165159D01*
X-142134Y165207D01*
X-142238Y165252D01*
X-142344Y165292D01*
X-142451Y165329D01*
X-142559Y165362D01*
X-142669Y165392D01*
X-142779Y165417D01*
X-142890Y165439D01*
X-143002Y165456D01*
X-143115Y165470D01*
X-143228Y165480D01*
X-143341Y165486D01*
X-143454Y165488D01*
X-143567Y165486D01*
X-143680Y165480D01*
X-143793Y165470D01*
X-143906Y165456D01*
X-144018Y165439D01*
X-144129Y165417D01*
X-144239Y165392D01*
X-144349Y165362D01*
X-144457Y165329D01*
X-144564Y165292D01*
X-144670Y165252D01*
X-144774Y165207D01*
X-144877Y165159D01*
X-144978Y165108D01*
X-145077Y165053D01*
X-145174Y164995D01*
X-145269Y164933D01*
X-145362Y164868D01*
X-145452Y164800D01*
X-145540Y164729D01*
X-145626Y164654D01*
X-145709Y164577D01*
X-145789Y164497D01*
X-145866Y164414D01*
X-145941Y164328D01*
X-146012Y164240D01*
X-146080Y164150D01*
X-146145Y164057D01*
X-146207Y163962D01*
X-146265Y163865D01*
X-146320Y163766D01*
X-146371Y163665D01*
X-146419Y163562D01*
X-146464Y163458D01*
X-146504Y163352D01*
X-146541Y163245D01*
X-146574Y163137D01*
X-146604Y163027D01*
X-146629Y162917D01*
X-146651Y162806D01*
X-146668Y162694D01*
X-146682Y162581D01*
X-146692Y162468D01*
X-146698Y162355D01*
X-146700Y162242D01*
X-151892Y162892D02*
X-151892Y158997D01*
X-151892Y162892D02*
X-151890Y162993D01*
X-151884Y163093D01*
X-151874Y163193D01*
X-151861Y163293D01*
X-151843Y163392D01*
X-151822Y163491D01*
X-151797Y163588D01*
X-151768Y163685D01*
X-151735Y163780D01*
X-151699Y163874D01*
X-151659Y163966D01*
X-151616Y164057D01*
X-151569Y164146D01*
X-151519Y164233D01*
X-151465Y164319D01*
X-151408Y164402D01*
X-151348Y164482D01*
X-151285Y164561D01*
X-151218Y164637D01*
X-151149Y164710D01*
X-151077Y164780D01*
X-151003Y164848D01*
X-150926Y164913D01*
X-150846Y164974D01*
X-150764Y165033D01*
X-150680Y165088D01*
X-150594Y165140D01*
X-150506Y165189D01*
X-150416Y165234D01*
X-150324Y165276D01*
X-150231Y165314D01*
X-150136Y165348D01*
X-150041Y165379D01*
X-149944Y165406D01*
X-149846Y165429D01*
X-149747Y165449D01*
X-149647Y165464D01*
X-149547Y165476D01*
X-149447Y165484D01*
X-149346Y165488D01*
X-149246Y165488D01*
X-149145Y165484D01*
X-149045Y165476D01*
X-148945Y165464D01*
X-148845Y165449D01*
X-148746Y165429D01*
X-148648Y165406D01*
X-148551Y165379D01*
X-148456Y165348D01*
X-148361Y165314D01*
X-148268Y165276D01*
X-148176Y165234D01*
X-148086Y165189D01*
X-147998Y165140D01*
X-147912Y165088D01*
X-147828Y165033D01*
X-147746Y164974D01*
X-147666Y164913D01*
X-147589Y164848D01*
X-147515Y164780D01*
X-147443Y164710D01*
X-147374Y164637D01*
X-147307Y164561D01*
X-147244Y164482D01*
X-147184Y164402D01*
X-147127Y164319D01*
X-147073Y164233D01*
X-147023Y164146D01*
X-146976Y164057D01*
X-146933Y163966D01*
X-146893Y163874D01*
X-146857Y163780D01*
X-146824Y163685D01*
X-146795Y163588D01*
X-146770Y163491D01*
X-146749Y163392D01*
X-146731Y163293D01*
X-146718Y163193D01*
X-146708Y163093D01*
X-146702Y162993D01*
X-146700Y162892D01*
X-146699Y162892D02*
X-146699Y160295D01*
X150305Y137795D02*
X150305Y134549D01*
X150305Y137795D02*
X150303Y137908D01*
X150297Y138021D01*
X150287Y138134D01*
X150273Y138247D01*
X150256Y138359D01*
X150234Y138470D01*
X150209Y138580D01*
X150179Y138690D01*
X150146Y138798D01*
X150109Y138905D01*
X150069Y139011D01*
X150024Y139115D01*
X149976Y139218D01*
X149925Y139319D01*
X149870Y139418D01*
X149812Y139515D01*
X149750Y139610D01*
X149685Y139703D01*
X149617Y139793D01*
X149546Y139881D01*
X149471Y139967D01*
X149394Y140050D01*
X149314Y140130D01*
X149231Y140207D01*
X149145Y140282D01*
X149057Y140353D01*
X148967Y140421D01*
X148874Y140486D01*
X148779Y140548D01*
X148682Y140606D01*
X148583Y140661D01*
X148482Y140712D01*
X148379Y140760D01*
X148275Y140805D01*
X148169Y140845D01*
X148062Y140882D01*
X147954Y140915D01*
X147844Y140945D01*
X147734Y140970D01*
X147623Y140992D01*
X147511Y141009D01*
X147398Y141023D01*
X147285Y141033D01*
X147172Y141039D01*
X147059Y141041D01*
X146946Y141039D01*
X146833Y141033D01*
X146720Y141023D01*
X146607Y141009D01*
X146495Y140992D01*
X146384Y140970D01*
X146274Y140945D01*
X146164Y140915D01*
X146056Y140882D01*
X145949Y140845D01*
X145843Y140805D01*
X145739Y140760D01*
X145636Y140712D01*
X145535Y140661D01*
X145436Y140606D01*
X145339Y140548D01*
X145244Y140486D01*
X145151Y140421D01*
X145061Y140353D01*
X144973Y140282D01*
X144887Y140207D01*
X144804Y140130D01*
X144724Y140050D01*
X144647Y139967D01*
X144572Y139881D01*
X144501Y139793D01*
X144433Y139703D01*
X144368Y139610D01*
X144306Y139515D01*
X144248Y139418D01*
X144193Y139319D01*
X144142Y139218D01*
X144094Y139115D01*
X144049Y139011D01*
X144009Y138905D01*
X143972Y138798D01*
X143939Y138690D01*
X143909Y138580D01*
X143884Y138470D01*
X143862Y138359D01*
X143845Y138247D01*
X143831Y138134D01*
X143821Y138021D01*
X143815Y137908D01*
X143813Y137795D01*
X138621Y138444D02*
X138621Y134549D01*
X138621Y138444D02*
X138623Y138545D01*
X138629Y138645D01*
X138639Y138745D01*
X138652Y138845D01*
X138670Y138944D01*
X138691Y139043D01*
X138716Y139140D01*
X138745Y139237D01*
X138778Y139332D01*
X138814Y139426D01*
X138854Y139518D01*
X138897Y139609D01*
X138944Y139698D01*
X138994Y139785D01*
X139048Y139871D01*
X139105Y139954D01*
X139165Y140034D01*
X139228Y140113D01*
X139295Y140189D01*
X139364Y140262D01*
X139436Y140332D01*
X139510Y140400D01*
X139587Y140465D01*
X139667Y140526D01*
X139749Y140585D01*
X139833Y140640D01*
X139919Y140692D01*
X140007Y140741D01*
X140097Y140786D01*
X140189Y140828D01*
X140282Y140866D01*
X140377Y140900D01*
X140472Y140931D01*
X140569Y140958D01*
X140667Y140981D01*
X140766Y141001D01*
X140866Y141016D01*
X140966Y141028D01*
X141066Y141036D01*
X141167Y141040D01*
X141267Y141040D01*
X141368Y141036D01*
X141468Y141028D01*
X141568Y141016D01*
X141668Y141001D01*
X141767Y140981D01*
X141865Y140958D01*
X141962Y140931D01*
X142057Y140900D01*
X142152Y140866D01*
X142245Y140828D01*
X142337Y140786D01*
X142427Y140741D01*
X142515Y140692D01*
X142601Y140640D01*
X142685Y140585D01*
X142767Y140526D01*
X142847Y140465D01*
X142924Y140400D01*
X142998Y140332D01*
X143070Y140262D01*
X143139Y140189D01*
X143206Y140113D01*
X143269Y140034D01*
X143329Y139954D01*
X143386Y139871D01*
X143440Y139785D01*
X143490Y139698D01*
X143537Y139609D01*
X143580Y139518D01*
X143620Y139426D01*
X143656Y139332D01*
X143689Y139237D01*
X143718Y139140D01*
X143743Y139043D01*
X143764Y138944D01*
X143782Y138845D01*
X143795Y138745D01*
X143805Y138645D01*
X143811Y138545D01*
X143813Y138444D01*
X143813Y135848D01*
X138621Y145330D02*
X150305Y149225D01*
X138621Y153120D01*
X150305Y157409D02*
X150305Y160655D01*
X150303Y160768D01*
X150297Y160881D01*
X150287Y160994D01*
X150273Y161107D01*
X150256Y161219D01*
X150234Y161330D01*
X150209Y161440D01*
X150179Y161550D01*
X150146Y161658D01*
X150109Y161765D01*
X150069Y161871D01*
X150024Y161975D01*
X149976Y162078D01*
X149925Y162179D01*
X149870Y162278D01*
X149812Y162375D01*
X149750Y162470D01*
X149685Y162563D01*
X149617Y162653D01*
X149546Y162741D01*
X149471Y162827D01*
X149394Y162910D01*
X149314Y162990D01*
X149231Y163067D01*
X149145Y163142D01*
X149057Y163213D01*
X148967Y163281D01*
X148874Y163346D01*
X148779Y163408D01*
X148682Y163466D01*
X148583Y163521D01*
X148482Y163572D01*
X148379Y163620D01*
X148275Y163665D01*
X148169Y163705D01*
X148062Y163742D01*
X147954Y163775D01*
X147844Y163805D01*
X147734Y163830D01*
X147623Y163852D01*
X147511Y163869D01*
X147398Y163883D01*
X147285Y163893D01*
X147172Y163899D01*
X147059Y163901D01*
X146946Y163899D01*
X146833Y163893D01*
X146720Y163883D01*
X146607Y163869D01*
X146495Y163852D01*
X146384Y163830D01*
X146274Y163805D01*
X146164Y163775D01*
X146056Y163742D01*
X145949Y163705D01*
X145843Y163665D01*
X145739Y163620D01*
X145636Y163572D01*
X145535Y163521D01*
X145436Y163466D01*
X145339Y163408D01*
X145244Y163346D01*
X145151Y163281D01*
X145061Y163213D01*
X144973Y163142D01*
X144887Y163067D01*
X144804Y162990D01*
X144724Y162910D01*
X144647Y162827D01*
X144572Y162741D01*
X144501Y162653D01*
X144433Y162563D01*
X144368Y162470D01*
X144306Y162375D01*
X144248Y162278D01*
X144193Y162179D01*
X144142Y162078D01*
X144094Y161975D01*
X144049Y161871D01*
X144009Y161765D01*
X143972Y161658D01*
X143939Y161550D01*
X143909Y161440D01*
X143884Y161330D01*
X143862Y161219D01*
X143845Y161107D01*
X143831Y160994D01*
X143821Y160881D01*
X143815Y160768D01*
X143813Y160655D01*
X138621Y161304D02*
X138621Y157409D01*
X138621Y161304D02*
X138623Y161405D01*
X138629Y161505D01*
X138639Y161605D01*
X138652Y161705D01*
X138670Y161804D01*
X138691Y161903D01*
X138716Y162000D01*
X138745Y162097D01*
X138778Y162192D01*
X138814Y162286D01*
X138854Y162378D01*
X138897Y162469D01*
X138944Y162558D01*
X138994Y162645D01*
X139048Y162731D01*
X139105Y162814D01*
X139165Y162894D01*
X139228Y162973D01*
X139295Y163049D01*
X139364Y163122D01*
X139436Y163192D01*
X139510Y163260D01*
X139587Y163325D01*
X139667Y163386D01*
X139749Y163445D01*
X139833Y163500D01*
X139919Y163552D01*
X140007Y163601D01*
X140097Y163646D01*
X140189Y163688D01*
X140282Y163726D01*
X140377Y163760D01*
X140472Y163791D01*
X140569Y163818D01*
X140667Y163841D01*
X140766Y163861D01*
X140866Y163876D01*
X140966Y163888D01*
X141066Y163896D01*
X141167Y163900D01*
X141267Y163900D01*
X141368Y163896D01*
X141468Y163888D01*
X141568Y163876D01*
X141668Y163861D01*
X141767Y163841D01*
X141865Y163818D01*
X141962Y163791D01*
X142057Y163760D01*
X142152Y163726D01*
X142245Y163688D01*
X142337Y163646D01*
X142427Y163601D01*
X142515Y163552D01*
X142601Y163500D01*
X142685Y163445D01*
X142767Y163386D01*
X142847Y163325D01*
X142924Y163260D01*
X142998Y163192D01*
X143070Y163122D01*
X143139Y163049D01*
X143206Y162973D01*
X143269Y162894D01*
X143329Y162814D01*
X143386Y162731D01*
X143440Y162645D01*
X143490Y162558D01*
X143537Y162469D01*
X143580Y162378D01*
X143620Y162286D01*
X143656Y162192D01*
X143689Y162097D01*
X143718Y162000D01*
X143743Y161903D01*
X143764Y161804D01*
X143782Y161705D01*
X143795Y161605D01*
X143805Y161505D01*
X143811Y161405D01*
X143813Y161304D01*
X143813Y158708D01*
X60311Y276408D02*
X57653Y278270D01*
X60311Y276408D02*
X60405Y276345D01*
X60501Y276285D01*
X60599Y276228D01*
X60699Y276175D01*
X60801Y276125D01*
X60905Y276079D01*
X61010Y276037D01*
X61116Y275998D01*
X61224Y275963D01*
X61333Y275932D01*
X61443Y275904D01*
X61554Y275881D01*
X61665Y275861D01*
X61777Y275845D01*
X61890Y275833D01*
X62003Y275825D01*
X62116Y275821D01*
X62230Y275821D01*
X62343Y275825D01*
X62456Y275833D01*
X62569Y275845D01*
X62681Y275861D01*
X62792Y275881D01*
X62903Y275904D01*
X63013Y275932D01*
X63122Y275963D01*
X63230Y275998D01*
X63336Y276037D01*
X63441Y276079D01*
X63545Y276125D01*
X63647Y276175D01*
X63747Y276228D01*
X63845Y276285D01*
X63941Y276345D01*
X64035Y276408D01*
X64126Y276475D01*
X64216Y276544D01*
X64303Y276617D01*
X64387Y276693D01*
X64468Y276772D01*
X64547Y276853D01*
X64623Y276937D01*
X64696Y277024D01*
X64765Y277114D01*
X64832Y277205D01*
X64895Y277299D01*
X64955Y277395D01*
X65012Y277493D01*
X65065Y277593D01*
X65115Y277695D01*
X65161Y277799D01*
X65203Y277904D01*
X65242Y278010D01*
X65277Y278118D01*
X65308Y278227D01*
X65336Y278337D01*
X65359Y278448D01*
X65379Y278559D01*
X65395Y278671D01*
X65407Y278784D01*
X65415Y278897D01*
X65419Y279010D01*
X65419Y279124D01*
X65415Y279237D01*
X65407Y279350D01*
X65395Y279463D01*
X65379Y279575D01*
X65359Y279686D01*
X65336Y279797D01*
X65308Y279907D01*
X65277Y280016D01*
X65242Y280124D01*
X65203Y280230D01*
X65161Y280335D01*
X65115Y280439D01*
X65065Y280541D01*
X65012Y280641D01*
X64955Y280739D01*
X64895Y280835D01*
X64832Y280929D01*
X64765Y281020D01*
X64696Y281110D01*
X64623Y281197D01*
X64547Y281281D01*
X64468Y281362D01*
X64387Y281441D01*
X64303Y281517D01*
X64216Y281590D01*
X64127Y281659D01*
X64035Y281726D01*
X67545Y285607D02*
X64354Y287840D01*
X67544Y285607D02*
X67625Y285547D01*
X67704Y285485D01*
X67781Y285419D01*
X67855Y285351D01*
X67926Y285280D01*
X67994Y285206D01*
X68060Y285129D01*
X68122Y285050D01*
X68182Y284969D01*
X68238Y284885D01*
X68291Y284800D01*
X68340Y284712D01*
X68386Y284623D01*
X68429Y284531D01*
X68468Y284438D01*
X68503Y284344D01*
X68535Y284249D01*
X68563Y284152D01*
X68587Y284054D01*
X68607Y283956D01*
X68624Y283856D01*
X68636Y283756D01*
X68645Y283656D01*
X68650Y283556D01*
X68651Y283455D01*
X68648Y283354D01*
X68641Y283254D01*
X68630Y283154D01*
X68616Y283054D01*
X68597Y282955D01*
X68575Y282857D01*
X68549Y282760D01*
X68519Y282663D01*
X68486Y282569D01*
X68449Y282475D01*
X68408Y282383D01*
X68363Y282292D01*
X68316Y282204D01*
X68264Y282117D01*
X68210Y282033D01*
X68152Y281950D01*
X68091Y281870D01*
X68027Y281792D01*
X67960Y281717D01*
X67891Y281644D01*
X67818Y281575D01*
X67743Y281508D01*
X67665Y281444D01*
X67585Y281383D01*
X67502Y281325D01*
X67418Y281271D01*
X67331Y281219D01*
X67243Y281172D01*
X67152Y281127D01*
X67060Y281086D01*
X66966Y281049D01*
X66872Y281016D01*
X66775Y280986D01*
X66678Y280960D01*
X66580Y280938D01*
X66481Y280919D01*
X66381Y280905D01*
X66281Y280894D01*
X66181Y280887D01*
X66080Y280884D01*
X65979Y280885D01*
X65879Y280890D01*
X65779Y280899D01*
X65679Y280911D01*
X65579Y280928D01*
X65481Y280948D01*
X65383Y280972D01*
X65286Y281000D01*
X65191Y281032D01*
X65097Y281067D01*
X65004Y281106D01*
X64912Y281149D01*
X64823Y281195D01*
X64735Y281244D01*
X64650Y281297D01*
X64566Y281353D01*
X62439Y282842D01*
X73185Y281657D02*
X69674Y269852D01*
X79566Y277189D01*
X76378Y265158D02*
X79037Y263296D01*
X79131Y263233D01*
X79227Y263173D01*
X79325Y263116D01*
X79425Y263063D01*
X79527Y263013D01*
X79631Y262967D01*
X79736Y262925D01*
X79842Y262886D01*
X79950Y262851D01*
X80059Y262820D01*
X80169Y262792D01*
X80280Y262769D01*
X80391Y262749D01*
X80503Y262733D01*
X80616Y262721D01*
X80729Y262713D01*
X80842Y262709D01*
X80956Y262709D01*
X81069Y262713D01*
X81182Y262721D01*
X81295Y262733D01*
X81407Y262749D01*
X81518Y262769D01*
X81629Y262792D01*
X81739Y262820D01*
X81848Y262851D01*
X81956Y262886D01*
X82062Y262925D01*
X82167Y262967D01*
X82271Y263013D01*
X82373Y263063D01*
X82473Y263116D01*
X82571Y263173D01*
X82667Y263233D01*
X82761Y263296D01*
X82852Y263363D01*
X82942Y263432D01*
X83029Y263505D01*
X83113Y263581D01*
X83194Y263660D01*
X83273Y263741D01*
X83349Y263825D01*
X83422Y263912D01*
X83491Y264002D01*
X83558Y264093D01*
X83621Y264187D01*
X83681Y264283D01*
X83738Y264381D01*
X83791Y264481D01*
X83841Y264583D01*
X83887Y264687D01*
X83929Y264792D01*
X83968Y264898D01*
X84003Y265006D01*
X84034Y265115D01*
X84062Y265225D01*
X84085Y265336D01*
X84105Y265447D01*
X84121Y265559D01*
X84133Y265672D01*
X84141Y265785D01*
X84145Y265898D01*
X84145Y266012D01*
X84141Y266125D01*
X84133Y266238D01*
X84121Y266351D01*
X84105Y266463D01*
X84085Y266574D01*
X84062Y266685D01*
X84034Y266795D01*
X84003Y266904D01*
X83968Y267012D01*
X83929Y267118D01*
X83887Y267223D01*
X83841Y267327D01*
X83791Y267429D01*
X83738Y267529D01*
X83681Y267627D01*
X83621Y267723D01*
X83558Y267817D01*
X83491Y267908D01*
X83422Y267998D01*
X83349Y268085D01*
X83273Y268169D01*
X83194Y268250D01*
X83113Y268329D01*
X83029Y268405D01*
X82942Y268478D01*
X82853Y268547D01*
X82761Y268614D01*
X86270Y272495D02*
X83080Y274728D01*
X86270Y272495D02*
X86351Y272435D01*
X86430Y272373D01*
X86507Y272307D01*
X86581Y272239D01*
X86652Y272168D01*
X86720Y272094D01*
X86786Y272017D01*
X86848Y271938D01*
X86908Y271857D01*
X86964Y271773D01*
X87017Y271688D01*
X87066Y271600D01*
X87112Y271511D01*
X87155Y271419D01*
X87194Y271326D01*
X87229Y271232D01*
X87261Y271137D01*
X87289Y271040D01*
X87313Y270942D01*
X87333Y270844D01*
X87350Y270744D01*
X87362Y270644D01*
X87371Y270544D01*
X87376Y270444D01*
X87377Y270343D01*
X87374Y270242D01*
X87367Y270142D01*
X87356Y270042D01*
X87342Y269942D01*
X87323Y269843D01*
X87301Y269745D01*
X87275Y269648D01*
X87245Y269551D01*
X87212Y269457D01*
X87175Y269363D01*
X87134Y269271D01*
X87089Y269180D01*
X87042Y269092D01*
X86990Y269005D01*
X86936Y268921D01*
X86878Y268838D01*
X86817Y268758D01*
X86753Y268680D01*
X86686Y268605D01*
X86617Y268532D01*
X86544Y268463D01*
X86469Y268396D01*
X86391Y268332D01*
X86311Y268271D01*
X86228Y268213D01*
X86144Y268159D01*
X86057Y268107D01*
X85969Y268060D01*
X85878Y268015D01*
X85786Y267974D01*
X85692Y267937D01*
X85598Y267904D01*
X85501Y267874D01*
X85404Y267848D01*
X85306Y267826D01*
X85207Y267807D01*
X85107Y267793D01*
X85007Y267782D01*
X84907Y267775D01*
X84806Y267772D01*
X84705Y267773D01*
X84605Y267778D01*
X84505Y267787D01*
X84405Y267799D01*
X84305Y267816D01*
X84207Y267836D01*
X84109Y267860D01*
X84012Y267888D01*
X83917Y267920D01*
X83823Y267955D01*
X83730Y267994D01*
X83638Y268037D01*
X83549Y268083D01*
X83461Y268132D01*
X83376Y268185D01*
X83292Y268241D01*
X81165Y269730D01*
D10*
X-92710Y88513D02*
X-110490Y88513D01*
X-92710Y88513D02*
X-92710Y83574D01*
X-92712Y83434D01*
X-92718Y83295D01*
X-92728Y83155D01*
X-92742Y83016D01*
X-92759Y82877D01*
X-92781Y82739D01*
X-92807Y82602D01*
X-92836Y82465D01*
X-92869Y82329D01*
X-92906Y82195D01*
X-92947Y82061D01*
X-92992Y81929D01*
X-93041Y81797D01*
X-93093Y81668D01*
X-93148Y81540D01*
X-93208Y81413D01*
X-93271Y81288D01*
X-93337Y81165D01*
X-93407Y81044D01*
X-93480Y80925D01*
X-93557Y80808D01*
X-93637Y80694D01*
X-93720Y80581D01*
X-93806Y80471D01*
X-93896Y80364D01*
X-93988Y80259D01*
X-94083Y80157D01*
X-94181Y80057D01*
X-94282Y79960D01*
X-94386Y79866D01*
X-94492Y79776D01*
X-94601Y79688D01*
X-94712Y79603D01*
X-94826Y79522D01*
X-94941Y79443D01*
X-95059Y79368D01*
X-95179Y79297D01*
X-95302Y79229D01*
X-95425Y79164D01*
X-95551Y79103D01*
X-95679Y79045D01*
X-95807Y78991D01*
X-95938Y78941D01*
X-96070Y78894D01*
X-96203Y78851D01*
X-96337Y78812D01*
X-96472Y78777D01*
X-96608Y78746D01*
X-96746Y78718D01*
X-96883Y78695D01*
X-97022Y78675D01*
X-97161Y78659D01*
X-97300Y78647D01*
X-97439Y78639D01*
X-97579Y78635D01*
X-97719Y78635D01*
X-97859Y78639D01*
X-97998Y78647D01*
X-98137Y78659D01*
X-98276Y78675D01*
X-98415Y78695D01*
X-98552Y78718D01*
X-98690Y78746D01*
X-98826Y78777D01*
X-98961Y78812D01*
X-99095Y78851D01*
X-99228Y78894D01*
X-99360Y78941D01*
X-99491Y78991D01*
X-99619Y79045D01*
X-99747Y79103D01*
X-99873Y79164D01*
X-99996Y79229D01*
X-100118Y79297D01*
X-100239Y79368D01*
X-100357Y79443D01*
X-100472Y79522D01*
X-100586Y79603D01*
X-100697Y79688D01*
X-100806Y79776D01*
X-100912Y79866D01*
X-101016Y79960D01*
X-101117Y80057D01*
X-101215Y80157D01*
X-101310Y80259D01*
X-101402Y80364D01*
X-101492Y80471D01*
X-101578Y80581D01*
X-101661Y80694D01*
X-101741Y80808D01*
X-101818Y80925D01*
X-101891Y81044D01*
X-101961Y81165D01*
X-102027Y81288D01*
X-102090Y81413D01*
X-102150Y81540D01*
X-102205Y81668D01*
X-102257Y81797D01*
X-102306Y81929D01*
X-102351Y82061D01*
X-102392Y82195D01*
X-102429Y82329D01*
X-102462Y82465D01*
X-102491Y82602D01*
X-102517Y82739D01*
X-102539Y82877D01*
X-102556Y83016D01*
X-102570Y83155D01*
X-102580Y83295D01*
X-102586Y83434D01*
X-102588Y83574D01*
X-102588Y88513D01*
X-106539Y72518D02*
X-92710Y68567D01*
X-106539Y72518D02*
X-106539Y62640D01*
X-102588Y65603D02*
X-110490Y65603D01*
X-103576Y50270D02*
X-97649Y50270D01*
X-103576Y50270D02*
X-108021Y46813D01*
X-103576Y50270D02*
X-108021Y53727D01*
X-103576Y50270D02*
X-101600Y44837D01*
X-103576Y50270D02*
X-101600Y55703D01*
X-135174Y187960D02*
X-135174Y205740D01*
X-130235Y205740D01*
X-130095Y205738D01*
X-129956Y205732D01*
X-129816Y205722D01*
X-129677Y205708D01*
X-129538Y205691D01*
X-129400Y205669D01*
X-129263Y205643D01*
X-129126Y205614D01*
X-128990Y205581D01*
X-128856Y205544D01*
X-128722Y205503D01*
X-128590Y205458D01*
X-128458Y205409D01*
X-128329Y205357D01*
X-128201Y205302D01*
X-128074Y205242D01*
X-127949Y205179D01*
X-127826Y205113D01*
X-127705Y205043D01*
X-127586Y204970D01*
X-127469Y204893D01*
X-127355Y204813D01*
X-127242Y204730D01*
X-127132Y204644D01*
X-127025Y204554D01*
X-126920Y204462D01*
X-126818Y204367D01*
X-126718Y204269D01*
X-126621Y204168D01*
X-126527Y204064D01*
X-126437Y203958D01*
X-126349Y203849D01*
X-126264Y203738D01*
X-126183Y203624D01*
X-126104Y203509D01*
X-126029Y203391D01*
X-125958Y203271D01*
X-125890Y203148D01*
X-125825Y203025D01*
X-125764Y202899D01*
X-125706Y202771D01*
X-125652Y202643D01*
X-125602Y202512D01*
X-125555Y202380D01*
X-125512Y202247D01*
X-125473Y202113D01*
X-125438Y201978D01*
X-125407Y201842D01*
X-125379Y201704D01*
X-125356Y201567D01*
X-125336Y201428D01*
X-125320Y201289D01*
X-125308Y201150D01*
X-125300Y201011D01*
X-125296Y200871D01*
X-125296Y200731D01*
X-125300Y200591D01*
X-125308Y200452D01*
X-125320Y200313D01*
X-125336Y200174D01*
X-125356Y200035D01*
X-125379Y199898D01*
X-125407Y199760D01*
X-125438Y199624D01*
X-125473Y199489D01*
X-125512Y199355D01*
X-125555Y199222D01*
X-125602Y199090D01*
X-125652Y198959D01*
X-125706Y198831D01*
X-125764Y198703D01*
X-125825Y198577D01*
X-125890Y198454D01*
X-125958Y198332D01*
X-126029Y198211D01*
X-126104Y198093D01*
X-126183Y197978D01*
X-126264Y197864D01*
X-126349Y197753D01*
X-126437Y197644D01*
X-126527Y197538D01*
X-126621Y197434D01*
X-126718Y197333D01*
X-126818Y197235D01*
X-126920Y197140D01*
X-127025Y197048D01*
X-127132Y196958D01*
X-127242Y196872D01*
X-127355Y196789D01*
X-127469Y196709D01*
X-127586Y196632D01*
X-127705Y196559D01*
X-127826Y196489D01*
X-127949Y196423D01*
X-128074Y196360D01*
X-128201Y196300D01*
X-128329Y196245D01*
X-128458Y196193D01*
X-128590Y196144D01*
X-128722Y196099D01*
X-128856Y196058D01*
X-128990Y196021D01*
X-129126Y195988D01*
X-129263Y195959D01*
X-129400Y195933D01*
X-129538Y195911D01*
X-129677Y195894D01*
X-129816Y195880D01*
X-129956Y195870D01*
X-130095Y195864D01*
X-130235Y195862D01*
X-135174Y195862D01*
X-119179Y187960D02*
X-113252Y187960D01*
X-113128Y187962D01*
X-113004Y187968D01*
X-112880Y187978D01*
X-112757Y187991D01*
X-112634Y188009D01*
X-112512Y188030D01*
X-112390Y188055D01*
X-112269Y188084D01*
X-112150Y188117D01*
X-112031Y188153D01*
X-111914Y188194D01*
X-111798Y188237D01*
X-111683Y188285D01*
X-111570Y188336D01*
X-111458Y188391D01*
X-111349Y188449D01*
X-111241Y188510D01*
X-111135Y188575D01*
X-111031Y188643D01*
X-110930Y188715D01*
X-110830Y188789D01*
X-110734Y188867D01*
X-110639Y188947D01*
X-110547Y189031D01*
X-110458Y189117D01*
X-110372Y189206D01*
X-110288Y189298D01*
X-110208Y189393D01*
X-110130Y189489D01*
X-110056Y189589D01*
X-109984Y189690D01*
X-109916Y189794D01*
X-109851Y189900D01*
X-109790Y190008D01*
X-109732Y190117D01*
X-109677Y190229D01*
X-109626Y190342D01*
X-109578Y190457D01*
X-109535Y190573D01*
X-109494Y190690D01*
X-109458Y190809D01*
X-109425Y190928D01*
X-109396Y191049D01*
X-109371Y191171D01*
X-109350Y191293D01*
X-109332Y191416D01*
X-109319Y191539D01*
X-109309Y191663D01*
X-109303Y191787D01*
X-109301Y191911D01*
X-109301Y193887D01*
X-109303Y194011D01*
X-109309Y194135D01*
X-109319Y194259D01*
X-109332Y194382D01*
X-109350Y194505D01*
X-109371Y194627D01*
X-109396Y194749D01*
X-109425Y194870D01*
X-109458Y194989D01*
X-109494Y195108D01*
X-109535Y195225D01*
X-109578Y195341D01*
X-109626Y195456D01*
X-109677Y195569D01*
X-109732Y195681D01*
X-109790Y195790D01*
X-109851Y195898D01*
X-109916Y196004D01*
X-109984Y196108D01*
X-110056Y196209D01*
X-110130Y196309D01*
X-110208Y196405D01*
X-110288Y196500D01*
X-110372Y196592D01*
X-110458Y196681D01*
X-110547Y196767D01*
X-110639Y196851D01*
X-110734Y196931D01*
X-110830Y197009D01*
X-110930Y197083D01*
X-111031Y197155D01*
X-111135Y197223D01*
X-111241Y197288D01*
X-111349Y197349D01*
X-111458Y197407D01*
X-111570Y197462D01*
X-111683Y197513D01*
X-111798Y197561D01*
X-111914Y197604D01*
X-112031Y197645D01*
X-112150Y197681D01*
X-112269Y197714D01*
X-112390Y197743D01*
X-112512Y197768D01*
X-112634Y197789D01*
X-112757Y197807D01*
X-112880Y197820D01*
X-113004Y197830D01*
X-113128Y197836D01*
X-113252Y197838D01*
X-119179Y197838D01*
X-119179Y205740D01*
X-109301Y205740D01*
X115651Y205740D02*
X115651Y187960D01*
X115651Y205740D02*
X120590Y205740D01*
X120730Y205738D01*
X120869Y205732D01*
X121009Y205722D01*
X121148Y205708D01*
X121287Y205691D01*
X121425Y205669D01*
X121562Y205643D01*
X121699Y205614D01*
X121835Y205581D01*
X121969Y205544D01*
X122103Y205503D01*
X122235Y205458D01*
X122367Y205409D01*
X122496Y205357D01*
X122624Y205302D01*
X122751Y205242D01*
X122876Y205179D01*
X122999Y205113D01*
X123120Y205043D01*
X123239Y204970D01*
X123356Y204893D01*
X123470Y204813D01*
X123583Y204730D01*
X123693Y204644D01*
X123800Y204554D01*
X123905Y204462D01*
X124007Y204367D01*
X124107Y204269D01*
X124204Y204168D01*
X124298Y204064D01*
X124388Y203958D01*
X124476Y203849D01*
X124561Y203738D01*
X124642Y203624D01*
X124721Y203509D01*
X124796Y203391D01*
X124867Y203271D01*
X124935Y203148D01*
X125000Y203025D01*
X125061Y202899D01*
X125119Y202771D01*
X125173Y202643D01*
X125223Y202512D01*
X125270Y202380D01*
X125313Y202247D01*
X125352Y202113D01*
X125387Y201978D01*
X125418Y201842D01*
X125446Y201704D01*
X125469Y201567D01*
X125489Y201428D01*
X125505Y201289D01*
X125517Y201150D01*
X125525Y201011D01*
X125529Y200871D01*
X125529Y200731D01*
X125525Y200591D01*
X125517Y200452D01*
X125505Y200313D01*
X125489Y200174D01*
X125469Y200035D01*
X125446Y199898D01*
X125418Y199760D01*
X125387Y199624D01*
X125352Y199489D01*
X125313Y199355D01*
X125270Y199222D01*
X125223Y199090D01*
X125173Y198959D01*
X125119Y198831D01*
X125061Y198703D01*
X125000Y198577D01*
X124935Y198454D01*
X124867Y198332D01*
X124796Y198211D01*
X124721Y198093D01*
X124642Y197978D01*
X124561Y197864D01*
X124476Y197753D01*
X124388Y197644D01*
X124298Y197538D01*
X124204Y197434D01*
X124107Y197333D01*
X124007Y197235D01*
X123905Y197140D01*
X123800Y197048D01*
X123693Y196958D01*
X123583Y196872D01*
X123470Y196789D01*
X123356Y196709D01*
X123239Y196632D01*
X123120Y196559D01*
X122999Y196489D01*
X122876Y196423D01*
X122751Y196360D01*
X122624Y196300D01*
X122496Y196245D01*
X122367Y196193D01*
X122235Y196144D01*
X122103Y196099D01*
X121969Y196058D01*
X121835Y196021D01*
X121699Y195988D01*
X121562Y195959D01*
X121425Y195933D01*
X121287Y195911D01*
X121148Y195894D01*
X121009Y195880D01*
X120869Y195870D01*
X120730Y195864D01*
X120590Y195862D01*
X115651Y195862D01*
X131646Y201789D02*
X136585Y205740D01*
X136585Y187960D01*
X131646Y187960D02*
X141524Y187960D01*
X108903Y55950D02*
X91123Y55950D01*
X91123Y60889D01*
X91122Y60889D02*
X91124Y61029D01*
X91130Y61168D01*
X91140Y61308D01*
X91154Y61447D01*
X91171Y61586D01*
X91193Y61724D01*
X91219Y61861D01*
X91248Y61998D01*
X91281Y62134D01*
X91318Y62268D01*
X91359Y62402D01*
X91404Y62534D01*
X91453Y62666D01*
X91505Y62795D01*
X91560Y62923D01*
X91620Y63050D01*
X91683Y63175D01*
X91749Y63298D01*
X91819Y63419D01*
X91892Y63538D01*
X91969Y63655D01*
X92049Y63769D01*
X92132Y63882D01*
X92218Y63992D01*
X92308Y64099D01*
X92400Y64204D01*
X92495Y64306D01*
X92593Y64406D01*
X92694Y64503D01*
X92798Y64597D01*
X92904Y64687D01*
X93013Y64775D01*
X93124Y64860D01*
X93238Y64941D01*
X93353Y65020D01*
X93471Y65095D01*
X93592Y65166D01*
X93714Y65234D01*
X93837Y65299D01*
X93963Y65360D01*
X94091Y65418D01*
X94219Y65472D01*
X94350Y65522D01*
X94482Y65569D01*
X94615Y65612D01*
X94749Y65651D01*
X94884Y65686D01*
X95020Y65717D01*
X95158Y65745D01*
X95295Y65768D01*
X95434Y65788D01*
X95573Y65804D01*
X95712Y65816D01*
X95851Y65824D01*
X95991Y65828D01*
X96131Y65828D01*
X96271Y65824D01*
X96410Y65816D01*
X96549Y65804D01*
X96688Y65788D01*
X96827Y65768D01*
X96964Y65745D01*
X97102Y65717D01*
X97238Y65686D01*
X97373Y65651D01*
X97507Y65612D01*
X97640Y65569D01*
X97772Y65522D01*
X97903Y65472D01*
X98031Y65418D01*
X98159Y65360D01*
X98285Y65299D01*
X98408Y65234D01*
X98531Y65166D01*
X98651Y65095D01*
X98769Y65020D01*
X98884Y64941D01*
X98998Y64860D01*
X99109Y64775D01*
X99218Y64687D01*
X99324Y64597D01*
X99428Y64503D01*
X99529Y64406D01*
X99627Y64306D01*
X99722Y64204D01*
X99814Y64099D01*
X99904Y63992D01*
X99990Y63882D01*
X100073Y63769D01*
X100153Y63655D01*
X100230Y63538D01*
X100303Y63419D01*
X100373Y63298D01*
X100439Y63175D01*
X100502Y63050D01*
X100562Y62923D01*
X100617Y62795D01*
X100669Y62666D01*
X100718Y62534D01*
X100763Y62402D01*
X100804Y62268D01*
X100841Y62134D01*
X100874Y61998D01*
X100903Y61861D01*
X100929Y61724D01*
X100951Y61586D01*
X100968Y61447D01*
X100982Y61308D01*
X100992Y61168D01*
X100998Y61029D01*
X101000Y60889D01*
X101000Y55950D01*
X91123Y77378D02*
X91125Y77510D01*
X91131Y77641D01*
X91141Y77773D01*
X91154Y77904D01*
X91172Y78034D01*
X91193Y78164D01*
X91218Y78294D01*
X91247Y78422D01*
X91280Y78550D01*
X91317Y78676D01*
X91357Y78802D01*
X91401Y78926D01*
X91449Y79049D01*
X91500Y79170D01*
X91555Y79290D01*
X91613Y79408D01*
X91675Y79524D01*
X91741Y79638D01*
X91809Y79751D01*
X91881Y79861D01*
X91956Y79969D01*
X92035Y80075D01*
X92116Y80179D01*
X92201Y80280D01*
X92288Y80378D01*
X92379Y80474D01*
X92472Y80567D01*
X92568Y80658D01*
X92666Y80745D01*
X92767Y80830D01*
X92871Y80911D01*
X92977Y80990D01*
X93085Y81065D01*
X93195Y81137D01*
X93308Y81205D01*
X93422Y81271D01*
X93538Y81333D01*
X93656Y81391D01*
X93776Y81446D01*
X93897Y81497D01*
X94020Y81545D01*
X94144Y81589D01*
X94270Y81629D01*
X94396Y81666D01*
X94524Y81699D01*
X94652Y81728D01*
X94782Y81753D01*
X94912Y81774D01*
X95042Y81792D01*
X95173Y81805D01*
X95305Y81815D01*
X95436Y81821D01*
X95568Y81823D01*
X91122Y77378D02*
X91124Y77228D01*
X91130Y77079D01*
X91140Y76930D01*
X91153Y76781D01*
X91171Y76632D01*
X91192Y76484D01*
X91218Y76336D01*
X91247Y76190D01*
X91280Y76044D01*
X91317Y75899D01*
X91358Y75755D01*
X91402Y75612D01*
X91450Y75470D01*
X91502Y75330D01*
X91557Y75191D01*
X91616Y75053D01*
X91679Y74918D01*
X91745Y74783D01*
X91815Y74651D01*
X91888Y74521D01*
X91965Y74392D01*
X92045Y74265D01*
X92128Y74141D01*
X92214Y74019D01*
X92304Y73899D01*
X92397Y73782D01*
X92492Y73667D01*
X92591Y73554D01*
X92693Y73444D01*
X92797Y73337D01*
X92904Y73233D01*
X93014Y73131D01*
X93127Y73033D01*
X93242Y72937D01*
X93360Y72845D01*
X93480Y72755D01*
X93602Y72669D01*
X93726Y72586D01*
X93853Y72506D01*
X93981Y72430D01*
X94112Y72357D01*
X94245Y72287D01*
X94379Y72221D01*
X94515Y72159D01*
X94652Y72100D01*
X94791Y72044D01*
X94932Y71993D01*
X95073Y71945D01*
X99025Y80340D02*
X98932Y80436D01*
X98836Y80528D01*
X98737Y80618D01*
X98636Y80705D01*
X98533Y80790D01*
X98428Y80871D01*
X98320Y80949D01*
X98210Y81024D01*
X98098Y81097D01*
X97984Y81166D01*
X97868Y81232D01*
X97750Y81294D01*
X97631Y81353D01*
X97510Y81409D01*
X97387Y81462D01*
X97263Y81511D01*
X97138Y81556D01*
X97011Y81599D01*
X96884Y81637D01*
X96755Y81672D01*
X96626Y81703D01*
X96495Y81731D01*
X96364Y81755D01*
X96232Y81776D01*
X96100Y81792D01*
X95967Y81805D01*
X95834Y81815D01*
X95701Y81820D01*
X95568Y81822D01*
X99025Y80341D02*
X108903Y71945D01*
X108903Y81823D01*
X101988Y94192D02*
X96061Y94192D01*
X101988Y94192D02*
X106433Y97650D01*
X101988Y94192D02*
X106433Y90735D01*
X101988Y94192D02*
X100013Y99625D01*
X101988Y94192D02*
X100013Y88760D01*
D11*
X-65778Y268532D02*
X-64156Y271343D01*
X-64155Y271343D02*
X-64100Y271442D01*
X-64049Y271543D01*
X-64001Y271646D01*
X-63956Y271750D01*
X-63916Y271856D01*
X-63879Y271963D01*
X-63846Y272071D01*
X-63816Y272181D01*
X-63791Y272291D01*
X-63769Y272402D01*
X-63752Y272514D01*
X-63738Y272627D01*
X-63728Y272740D01*
X-63722Y272853D01*
X-63720Y272966D01*
X-63722Y273079D01*
X-63728Y273192D01*
X-63738Y273305D01*
X-63752Y273418D01*
X-63769Y273530D01*
X-63791Y273641D01*
X-63816Y273751D01*
X-63846Y273861D01*
X-63879Y273969D01*
X-63916Y274076D01*
X-63956Y274182D01*
X-64001Y274286D01*
X-64049Y274389D01*
X-64100Y274490D01*
X-64155Y274589D01*
X-64213Y274686D01*
X-64275Y274781D01*
X-64340Y274874D01*
X-64408Y274964D01*
X-64479Y275052D01*
X-64554Y275138D01*
X-64631Y275221D01*
X-64711Y275301D01*
X-64794Y275378D01*
X-64880Y275453D01*
X-64968Y275524D01*
X-65058Y275592D01*
X-65151Y275657D01*
X-65246Y275719D01*
X-65343Y275777D01*
X-65442Y275832D01*
X-65543Y275883D01*
X-65646Y275931D01*
X-65750Y275976D01*
X-65856Y276016D01*
X-65963Y276053D01*
X-66071Y276086D01*
X-66181Y276116D01*
X-66291Y276141D01*
X-66402Y276163D01*
X-66514Y276180D01*
X-66627Y276194D01*
X-66740Y276204D01*
X-66853Y276210D01*
X-66966Y276212D01*
X-67079Y276210D01*
X-67192Y276204D01*
X-67305Y276194D01*
X-67418Y276180D01*
X-67530Y276163D01*
X-67641Y276141D01*
X-67751Y276116D01*
X-67861Y276086D01*
X-67969Y276053D01*
X-68076Y276016D01*
X-68182Y275976D01*
X-68286Y275931D01*
X-68389Y275883D01*
X-68490Y275832D01*
X-68589Y275777D01*
X-68686Y275719D01*
X-68781Y275657D01*
X-68874Y275592D01*
X-68964Y275524D01*
X-69052Y275453D01*
X-69138Y275378D01*
X-69221Y275301D01*
X-69301Y275221D01*
X-69378Y275138D01*
X-69453Y275052D01*
X-69524Y274964D01*
X-69592Y274874D01*
X-69657Y274781D01*
X-69719Y274686D01*
X-69777Y274589D01*
X-73950Y277747D02*
X-75897Y274374D01*
X-73950Y277748D02*
X-73898Y277834D01*
X-73843Y277918D01*
X-73784Y278000D01*
X-73722Y278079D01*
X-73658Y278157D01*
X-73590Y278231D01*
X-73519Y278303D01*
X-73446Y278372D01*
X-73370Y278438D01*
X-73292Y278502D01*
X-73211Y278562D01*
X-73128Y278619D01*
X-73043Y278672D01*
X-72956Y278723D01*
X-72867Y278770D01*
X-72776Y278813D01*
X-72683Y278853D01*
X-72589Y278889D01*
X-72494Y278922D01*
X-72397Y278951D01*
X-72300Y278976D01*
X-72201Y278997D01*
X-72102Y279015D01*
X-72002Y279028D01*
X-71902Y279038D01*
X-71802Y279044D01*
X-71701Y279046D01*
X-71600Y279044D01*
X-71500Y279038D01*
X-71400Y279028D01*
X-71300Y279015D01*
X-71201Y278997D01*
X-71102Y278976D01*
X-71005Y278951D01*
X-70908Y278922D01*
X-70813Y278889D01*
X-70719Y278853D01*
X-70626Y278813D01*
X-70535Y278770D01*
X-70446Y278723D01*
X-70359Y278672D01*
X-70274Y278619D01*
X-70191Y278562D01*
X-70110Y278502D01*
X-70032Y278438D01*
X-69956Y278372D01*
X-69883Y278303D01*
X-69812Y278231D01*
X-69744Y278157D01*
X-69680Y278079D01*
X-69618Y278000D01*
X-69559Y277918D01*
X-69504Y277834D01*
X-69452Y277748D01*
X-69403Y277659D01*
X-69358Y277569D01*
X-69316Y277478D01*
X-69278Y277384D01*
X-69244Y277290D01*
X-69213Y277194D01*
X-69186Y277097D01*
X-69163Y276999D01*
X-69143Y276900D01*
X-69128Y276800D01*
X-69116Y276700D01*
X-69108Y276600D01*
X-69104Y276499D01*
X-69104Y276399D01*
X-69108Y276298D01*
X-69116Y276198D01*
X-69128Y276098D01*
X-69143Y275998D01*
X-69163Y275899D01*
X-69186Y275801D01*
X-69213Y275704D01*
X-69244Y275608D01*
X-69278Y275514D01*
X-69316Y275420D01*
X-69358Y275329D01*
X-69403Y275239D01*
X-69452Y275151D01*
X-69453Y275151D02*
X-70751Y272902D01*
X-70507Y283711D02*
X-58441Y281241D01*
X-66612Y290456D01*
X-54348Y288329D02*
X-52726Y291140D01*
X-52725Y291140D02*
X-52670Y291239D01*
X-52619Y291340D01*
X-52571Y291443D01*
X-52526Y291547D01*
X-52486Y291653D01*
X-52449Y291760D01*
X-52416Y291868D01*
X-52386Y291978D01*
X-52361Y292088D01*
X-52339Y292199D01*
X-52322Y292311D01*
X-52308Y292424D01*
X-52298Y292537D01*
X-52292Y292650D01*
X-52290Y292763D01*
X-52292Y292876D01*
X-52298Y292989D01*
X-52308Y293102D01*
X-52322Y293215D01*
X-52339Y293327D01*
X-52361Y293438D01*
X-52386Y293548D01*
X-52416Y293658D01*
X-52449Y293766D01*
X-52486Y293873D01*
X-52526Y293979D01*
X-52571Y294083D01*
X-52619Y294186D01*
X-52670Y294287D01*
X-52725Y294386D01*
X-52783Y294483D01*
X-52845Y294578D01*
X-52910Y294671D01*
X-52978Y294761D01*
X-53049Y294849D01*
X-53124Y294935D01*
X-53201Y295018D01*
X-53281Y295098D01*
X-53364Y295175D01*
X-53450Y295250D01*
X-53538Y295321D01*
X-53628Y295389D01*
X-53721Y295454D01*
X-53816Y295516D01*
X-53913Y295574D01*
X-54012Y295629D01*
X-54113Y295680D01*
X-54216Y295728D01*
X-54320Y295773D01*
X-54426Y295813D01*
X-54533Y295850D01*
X-54641Y295883D01*
X-54751Y295913D01*
X-54861Y295938D01*
X-54972Y295960D01*
X-55084Y295977D01*
X-55197Y295991D01*
X-55310Y296001D01*
X-55423Y296007D01*
X-55536Y296009D01*
X-55649Y296007D01*
X-55762Y296001D01*
X-55875Y295991D01*
X-55988Y295977D01*
X-56100Y295960D01*
X-56211Y295938D01*
X-56321Y295913D01*
X-56431Y295883D01*
X-56539Y295850D01*
X-56646Y295813D01*
X-56752Y295773D01*
X-56856Y295728D01*
X-56959Y295680D01*
X-57060Y295629D01*
X-57159Y295574D01*
X-57256Y295516D01*
X-57351Y295454D01*
X-57444Y295389D01*
X-57534Y295321D01*
X-57622Y295250D01*
X-57708Y295175D01*
X-57791Y295098D01*
X-57871Y295018D01*
X-57948Y294935D01*
X-58023Y294849D01*
X-58094Y294761D01*
X-58162Y294671D01*
X-58227Y294578D01*
X-58289Y294483D01*
X-58347Y294386D01*
X-62520Y297544D02*
X-64467Y294171D01*
X-62520Y297545D02*
X-62468Y297631D01*
X-62413Y297715D01*
X-62354Y297797D01*
X-62292Y297876D01*
X-62228Y297954D01*
X-62160Y298028D01*
X-62089Y298100D01*
X-62016Y298169D01*
X-61940Y298235D01*
X-61862Y298299D01*
X-61781Y298359D01*
X-61698Y298416D01*
X-61613Y298469D01*
X-61526Y298520D01*
X-61437Y298567D01*
X-61346Y298610D01*
X-61253Y298650D01*
X-61159Y298686D01*
X-61064Y298719D01*
X-60967Y298748D01*
X-60870Y298773D01*
X-60771Y298794D01*
X-60672Y298812D01*
X-60572Y298825D01*
X-60472Y298835D01*
X-60372Y298841D01*
X-60271Y298843D01*
X-60170Y298841D01*
X-60070Y298835D01*
X-59970Y298825D01*
X-59870Y298812D01*
X-59771Y298794D01*
X-59672Y298773D01*
X-59575Y298748D01*
X-59478Y298719D01*
X-59383Y298686D01*
X-59289Y298650D01*
X-59196Y298610D01*
X-59105Y298567D01*
X-59016Y298520D01*
X-58929Y298469D01*
X-58844Y298416D01*
X-58761Y298359D01*
X-58680Y298299D01*
X-58602Y298235D01*
X-58526Y298169D01*
X-58453Y298100D01*
X-58382Y298028D01*
X-58314Y297954D01*
X-58250Y297876D01*
X-58188Y297797D01*
X-58129Y297715D01*
X-58074Y297631D01*
X-58022Y297545D01*
X-57973Y297456D01*
X-57928Y297366D01*
X-57886Y297275D01*
X-57848Y297181D01*
X-57814Y297087D01*
X-57783Y296991D01*
X-57756Y296894D01*
X-57733Y296796D01*
X-57713Y296697D01*
X-57698Y296597D01*
X-57686Y296497D01*
X-57678Y296397D01*
X-57674Y296296D01*
X-57674Y296196D01*
X-57678Y296095D01*
X-57686Y295995D01*
X-57698Y295895D01*
X-57713Y295795D01*
X-57733Y295696D01*
X-57756Y295598D01*
X-57783Y295501D01*
X-57814Y295405D01*
X-57848Y295311D01*
X-57886Y295217D01*
X-57928Y295126D01*
X-57973Y295036D01*
X-58022Y294948D01*
X-59321Y292699D01*
D10*
X-93147Y166956D02*
X-97663Y166956D01*
X-93147Y166956D02*
X-93014Y166954D01*
X-92882Y166948D01*
X-92750Y166938D01*
X-92618Y166925D01*
X-92486Y166907D01*
X-92356Y166886D01*
X-92225Y166861D01*
X-92096Y166832D01*
X-91968Y166799D01*
X-91840Y166763D01*
X-91714Y166723D01*
X-91589Y166679D01*
X-91465Y166631D01*
X-91343Y166580D01*
X-91222Y166525D01*
X-91103Y166467D01*
X-90985Y166405D01*
X-90870Y166340D01*
X-90756Y166271D01*
X-90645Y166200D01*
X-90536Y166124D01*
X-90429Y166046D01*
X-90324Y165965D01*
X-90222Y165880D01*
X-90122Y165793D01*
X-90025Y165703D01*
X-89930Y165610D01*
X-89839Y165514D01*
X-89750Y165416D01*
X-89664Y165315D01*
X-89581Y165211D01*
X-89501Y165105D01*
X-89425Y164997D01*
X-89351Y164887D01*
X-89281Y164774D01*
X-89214Y164660D01*
X-89151Y164543D01*
X-89091Y164425D01*
X-89034Y164305D01*
X-88981Y164183D01*
X-88932Y164060D01*
X-88886Y163936D01*
X-88844Y163810D01*
X-88806Y163683D01*
X-88771Y163555D01*
X-88740Y163426D01*
X-88713Y163297D01*
X-88690Y163166D01*
X-88670Y163035D01*
X-88655Y162903D01*
X-88643Y162771D01*
X-88635Y162639D01*
X-88631Y162506D01*
X-88631Y162374D01*
X-88635Y162241D01*
X-88643Y162109D01*
X-88655Y161977D01*
X-88670Y161845D01*
X-88690Y161714D01*
X-88713Y161583D01*
X-88740Y161454D01*
X-88771Y161325D01*
X-88806Y161197D01*
X-88844Y161070D01*
X-88886Y160944D01*
X-88932Y160820D01*
X-88981Y160697D01*
X-89034Y160575D01*
X-89091Y160455D01*
X-89151Y160337D01*
X-89214Y160220D01*
X-89281Y160106D01*
X-89351Y159993D01*
X-89425Y159883D01*
X-89501Y159775D01*
X-89581Y159669D01*
X-89664Y159565D01*
X-89750Y159464D01*
X-89839Y159366D01*
X-89930Y159270D01*
X-90025Y159177D01*
X-90122Y159087D01*
X-90222Y159000D01*
X-90324Y158915D01*
X-90429Y158834D01*
X-90536Y158756D01*
X-90645Y158680D01*
X-90756Y158609D01*
X-90870Y158540D01*
X-90985Y158475D01*
X-91103Y158413D01*
X-91222Y158355D01*
X-91343Y158300D01*
X-91465Y158249D01*
X-91589Y158201D01*
X-91714Y158157D01*
X-91840Y158117D01*
X-91968Y158081D01*
X-92096Y158048D01*
X-92225Y158019D01*
X-92356Y157994D01*
X-92486Y157973D01*
X-92618Y157955D01*
X-92750Y157942D01*
X-92882Y157932D01*
X-93014Y157926D01*
X-93147Y157924D01*
X-93147Y157925D02*
X-97663Y157925D01*
X-97663Y174181D01*
X-93147Y174181D01*
X-93147Y174180D02*
X-93028Y174178D01*
X-92908Y174172D01*
X-92789Y174162D01*
X-92671Y174148D01*
X-92552Y174131D01*
X-92435Y174109D01*
X-92318Y174084D01*
X-92203Y174054D01*
X-92088Y174021D01*
X-91974Y173984D01*
X-91862Y173944D01*
X-91751Y173899D01*
X-91642Y173851D01*
X-91534Y173800D01*
X-91428Y173745D01*
X-91324Y173686D01*
X-91222Y173624D01*
X-91122Y173559D01*
X-91024Y173490D01*
X-90928Y173418D01*
X-90835Y173343D01*
X-90745Y173266D01*
X-90657Y173185D01*
X-90572Y173101D01*
X-90490Y173014D01*
X-90410Y172925D01*
X-90334Y172833D01*
X-90260Y172739D01*
X-90190Y172642D01*
X-90123Y172544D01*
X-90059Y172443D01*
X-89999Y172339D01*
X-89942Y172234D01*
X-89889Y172127D01*
X-89839Y172019D01*
X-89793Y171909D01*
X-89751Y171797D01*
X-89712Y171684D01*
X-89677Y171570D01*
X-89646Y171455D01*
X-89618Y171338D01*
X-89595Y171221D01*
X-89575Y171104D01*
X-89559Y170985D01*
X-89547Y170866D01*
X-89539Y170747D01*
X-89535Y170628D01*
X-89535Y170508D01*
X-89539Y170389D01*
X-89547Y170270D01*
X-89559Y170151D01*
X-89575Y170032D01*
X-89595Y169915D01*
X-89618Y169798D01*
X-89646Y169681D01*
X-89677Y169566D01*
X-89712Y169452D01*
X-89751Y169339D01*
X-89793Y169227D01*
X-89839Y169117D01*
X-89889Y169009D01*
X-89942Y168902D01*
X-89999Y168797D01*
X-90059Y168693D01*
X-90123Y168592D01*
X-90190Y168494D01*
X-90260Y168397D01*
X-90334Y168303D01*
X-90410Y168211D01*
X-90490Y168122D01*
X-90572Y168035D01*
X-90657Y167951D01*
X-90745Y167870D01*
X-90835Y167793D01*
X-90928Y167718D01*
X-91024Y167646D01*
X-91122Y167577D01*
X-91222Y167512D01*
X-91324Y167450D01*
X-91428Y167391D01*
X-91534Y167336D01*
X-91642Y167285D01*
X-91751Y167237D01*
X-91862Y167192D01*
X-91974Y167152D01*
X-92088Y167115D01*
X-92203Y167082D01*
X-92318Y167052D01*
X-92435Y167027D01*
X-92552Y167005D01*
X-92671Y166988D01*
X-92789Y166974D01*
X-92908Y166964D01*
X-93028Y166958D01*
X-93147Y166956D01*
X111125Y147638D02*
X123825Y147638D01*
X130175Y141288D01*
X130175Y128588D01*
X123825Y122238D01*
X104775Y128588D02*
X104775Y141288D01*
X111125Y147638D01*
X104775Y128588D02*
X111125Y122238D01*
X123825Y122238D01*
X90884Y126603D02*
X90884Y142859D01*
X95400Y142859D01*
X95400Y142860D02*
X95533Y142858D01*
X95665Y142852D01*
X95797Y142842D01*
X95929Y142829D01*
X96061Y142811D01*
X96191Y142790D01*
X96322Y142765D01*
X96451Y142736D01*
X96579Y142703D01*
X96707Y142667D01*
X96833Y142627D01*
X96958Y142583D01*
X97082Y142535D01*
X97204Y142484D01*
X97325Y142429D01*
X97444Y142371D01*
X97562Y142309D01*
X97677Y142244D01*
X97791Y142175D01*
X97902Y142104D01*
X98011Y142028D01*
X98118Y141950D01*
X98223Y141869D01*
X98325Y141784D01*
X98425Y141697D01*
X98522Y141607D01*
X98617Y141514D01*
X98708Y141418D01*
X98797Y141320D01*
X98883Y141219D01*
X98966Y141115D01*
X99046Y141009D01*
X99122Y140901D01*
X99196Y140791D01*
X99266Y140678D01*
X99333Y140564D01*
X99396Y140447D01*
X99456Y140329D01*
X99513Y140209D01*
X99566Y140087D01*
X99615Y139964D01*
X99661Y139840D01*
X99703Y139714D01*
X99741Y139587D01*
X99776Y139459D01*
X99807Y139330D01*
X99834Y139201D01*
X99857Y139070D01*
X99877Y138939D01*
X99892Y138807D01*
X99904Y138675D01*
X99912Y138543D01*
X99916Y138410D01*
X99916Y138278D01*
X99912Y138145D01*
X99904Y138013D01*
X99892Y137881D01*
X99877Y137749D01*
X99857Y137618D01*
X99834Y137487D01*
X99807Y137358D01*
X99776Y137229D01*
X99741Y137101D01*
X99703Y136974D01*
X99661Y136848D01*
X99615Y136724D01*
X99566Y136601D01*
X99513Y136479D01*
X99456Y136359D01*
X99396Y136241D01*
X99333Y136124D01*
X99266Y136010D01*
X99196Y135897D01*
X99122Y135787D01*
X99046Y135679D01*
X98966Y135573D01*
X98883Y135469D01*
X98797Y135368D01*
X98708Y135270D01*
X98617Y135174D01*
X98522Y135081D01*
X98425Y134991D01*
X98325Y134904D01*
X98223Y134819D01*
X98118Y134738D01*
X98011Y134660D01*
X97902Y134584D01*
X97791Y134513D01*
X97677Y134444D01*
X97562Y134379D01*
X97444Y134317D01*
X97325Y134259D01*
X97204Y134204D01*
X97082Y134153D01*
X96958Y134105D01*
X96833Y134061D01*
X96707Y134021D01*
X96579Y133985D01*
X96451Y133952D01*
X96322Y133923D01*
X96191Y133898D01*
X96061Y133877D01*
X95929Y133859D01*
X95797Y133846D01*
X95665Y133836D01*
X95533Y133830D01*
X95400Y133828D01*
X90884Y133828D01*
X96303Y133828D02*
X99915Y126603D01*
X-103188Y160338D02*
X-103188Y173038D01*
X-103188Y160338D02*
X-109538Y153988D01*
X-122238Y153988D01*
X-128588Y160338D01*
X-109538Y153988D02*
X-103188Y147638D01*
X-103188Y134938D01*
X-109538Y128588D01*
X-122238Y128588D01*
X-128588Y134938D01*
X-128588Y147638D01*
X-122238Y153988D01*
X-122238Y179388D02*
X-109538Y179388D01*
X-103188Y173038D01*
X-122238Y179388D02*
X-128588Y173038D01*
X-128588Y160338D01*
X-109538Y128588D02*
X-103188Y122238D01*
X-103188Y109538D01*
X-109538Y103188D01*
X-122238Y103188D01*
X-128588Y109538D01*
X-128588Y122238D01*
X-122238Y128588D01*
D12*
X77343Y203352D03*
D13*
X88697Y203352D03*
D14*
X75514Y203505D03*
X78715Y203505D03*
X95631Y203505D03*
D15*
X77114Y203505D03*
D16*
X88773Y203505D03*
D14*
X75209Y203657D03*
X78715Y203657D03*
D17*
X76962Y203657D03*
D18*
X89002Y203657D03*
D14*
X78715Y203810D03*
X96241Y203810D03*
D19*
X76810Y203810D03*
D20*
X89078Y203810D03*
D14*
X78715Y203962D03*
D21*
X76733Y203962D03*
D22*
X89230Y203962D03*
D14*
X74600Y204114D03*
X78715Y204114D03*
D23*
X76657Y204114D03*
D24*
X89306Y204114D03*
D14*
X78715Y204267D03*
D25*
X76581Y204267D03*
D26*
X89383Y204267D03*
D14*
X78715Y204419D03*
X96850Y204419D03*
D27*
X76505Y204419D03*
D26*
X89383Y204419D03*
D14*
X74295Y204572D03*
X78715Y204572D03*
D27*
X76505Y204572D03*
D28*
X89459Y204572D03*
D14*
X78715Y204724D03*
D29*
X76429Y204724D03*
D30*
X89535Y204724D03*
D14*
X78715Y204876D03*
X97155Y204876D03*
D31*
X76352Y204876D03*
D30*
X89535Y204876D03*
D14*
X73990Y205029D03*
X78715Y205029D03*
D31*
X76352Y205029D03*
D32*
X89611Y205029D03*
D14*
X78715Y205181D03*
X97307Y205181D03*
D33*
X76276Y205181D03*
D32*
X89611Y205181D03*
D14*
X73838Y205334D03*
X78715Y205334D03*
D33*
X76276Y205334D03*
D34*
X89687Y205334D03*
D14*
X78715Y205486D03*
D35*
X76200Y205486D03*
D36*
X89764Y205486D03*
D14*
X78715Y205638D03*
X97612Y205638D03*
D37*
X76124Y205638D03*
D36*
X89764Y205638D03*
D14*
X78715Y205791D03*
D37*
X76124Y205791D03*
D38*
X89840Y205791D03*
D14*
X78715Y205943D03*
X97765Y205943D03*
D39*
X76048Y205943D03*
D38*
X89840Y205943D03*
D14*
X73381Y206096D03*
X78715Y206096D03*
D39*
X76048Y206096D03*
D40*
X89916Y206096D03*
D14*
X78715Y206248D03*
X97917Y206248D03*
D41*
X75971Y206248D03*
D40*
X89916Y206248D03*
D14*
X73228Y206400D03*
X78715Y206400D03*
D41*
X75971Y206400D03*
D42*
X89992Y206400D03*
D14*
X78715Y206553D03*
D43*
X75895Y206553D03*
D44*
X90068Y206553D03*
D14*
X78715Y206705D03*
X98222Y206705D03*
D45*
X75819Y206705D03*
D44*
X90068Y206705D03*
D14*
X72923Y206858D03*
X78715Y206858D03*
D45*
X75819Y206858D03*
D46*
X90145Y206858D03*
D14*
X78715Y207010D03*
X98374Y207010D03*
D47*
X75743Y207010D03*
D46*
X90145Y207010D03*
D14*
X72771Y207162D03*
X78715Y207162D03*
D47*
X75743Y207162D03*
D48*
X90221Y207162D03*
D14*
X78715Y207315D03*
D49*
X75667Y207315D03*
D50*
X90297Y207315D03*
D14*
X72619Y207467D03*
X78715Y207467D03*
D49*
X75667Y207467D03*
D50*
X90297Y207467D03*
D14*
X78715Y207620D03*
D51*
X75590Y207620D03*
D52*
X90373Y207620D03*
D14*
X78715Y207772D03*
X98831Y207772D03*
D53*
X75514Y207772D03*
D52*
X90373Y207772D03*
D14*
X72314Y207924D03*
X78715Y207924D03*
D53*
X75514Y207924D03*
D54*
X90449Y207924D03*
D14*
X78715Y208077D03*
X98984Y208077D03*
D55*
X75438Y208077D03*
D54*
X90449Y208077D03*
D14*
X72161Y208229D03*
X78715Y208229D03*
D55*
X75438Y208229D03*
D56*
X90526Y208229D03*
D14*
X78715Y208382D03*
D57*
X75362Y208382D03*
D58*
X90602Y208382D03*
D14*
X72009Y208534D03*
X78715Y208534D03*
D57*
X75362Y208534D03*
D58*
X90602Y208534D03*
D14*
X78715Y208686D03*
D59*
X75286Y208686D03*
D60*
X90678Y208686D03*
D14*
X78715Y208839D03*
X99441Y208839D03*
D61*
X75209Y208839D03*
D60*
X90678Y208839D03*
D14*
X71704Y208991D03*
X78715Y208991D03*
D61*
X75209Y208991D03*
D62*
X90754Y208991D03*
D14*
X78715Y209144D03*
X82067Y209144D03*
X99593Y209144D03*
D63*
X75133Y209144D03*
D60*
X90830Y209144D03*
D14*
X71552Y209296D03*
X78715Y209296D03*
X82067Y209296D03*
D63*
X75133Y209296D03*
D62*
X90907Y209296D03*
D14*
X78715Y209448D03*
X82067Y209448D03*
X99746Y209448D03*
D64*
X75057Y209448D03*
D62*
X90907Y209448D03*
D14*
X78715Y209601D03*
X82067Y209601D03*
D65*
X74981Y209601D03*
D66*
X90983Y209601D03*
D14*
X78715Y209753D03*
X82067Y209753D03*
D65*
X74981Y209753D03*
D67*
X91059Y209753D03*
D14*
X78715Y209906D03*
X82067Y209906D03*
X100051Y209906D03*
D68*
X74905Y209906D03*
D67*
X91059Y209906D03*
D14*
X71095Y210058D03*
X78715Y210058D03*
X82067Y210058D03*
D68*
X74905Y210058D03*
D69*
X91135Y210058D03*
D14*
X78715Y210210D03*
X82067Y210210D03*
D70*
X90373Y210210D03*
D14*
X91364Y210210D03*
X100203Y210210D03*
D71*
X74828Y210210D03*
D72*
X86182Y210210D03*
D73*
X95783Y210210D03*
D14*
X70942Y210363D03*
X78715Y210363D03*
X82067Y210363D03*
X89992Y210363D03*
X91669Y210363D03*
D71*
X74828Y210363D03*
D74*
X86030Y210363D03*
D75*
X96012Y210363D03*
D14*
X78715Y210515D03*
X82067Y210515D03*
X89840Y210515D03*
X100355Y210515D03*
D74*
X74752Y210515D03*
D71*
X85954Y210515D03*
D76*
X96088Y210515D03*
D14*
X78715Y210668D03*
X82067Y210668D03*
X92126Y210668D03*
X100508Y210668D03*
D77*
X74676Y210668D03*
D68*
X85877Y210668D03*
D78*
X96317Y210668D03*
D14*
X70637Y210820D03*
X78715Y210820D03*
X82067Y210820D03*
X89535Y210820D03*
D77*
X74676Y210820D03*
D65*
X85801Y210820D03*
D76*
X96393Y210820D03*
D14*
X78715Y210972D03*
X82067Y210972D03*
X100660Y210972D03*
D72*
X74600Y210972D03*
D65*
X85801Y210972D03*
D79*
X96469Y210972D03*
D14*
X70485Y211125D03*
X78715Y211125D03*
X82067Y211125D03*
D72*
X74600Y211125D03*
D64*
X85725Y211125D03*
D76*
X96545Y211125D03*
D14*
X78715Y211277D03*
X82067Y211277D03*
X92431Y211277D03*
X100813Y211277D03*
D79*
X74524Y211277D03*
D64*
X85725Y211277D03*
D79*
X96622Y211277D03*
D14*
X70333Y211430D03*
X78715Y211430D03*
X82067Y211430D03*
X89230Y211430D03*
D79*
X74524Y211430D03*
D63*
X85649Y211430D03*
D76*
X96698Y211430D03*
D14*
X78715Y211582D03*
X82067Y211582D03*
X89230Y211582D03*
X100965Y211582D03*
D76*
X74447Y211582D03*
D63*
X85649Y211582D03*
D76*
X96698Y211582D03*
D14*
X78715Y211734D03*
X82067Y211734D03*
X89230Y211734D03*
D75*
X74371Y211734D03*
D63*
X85649Y211734D03*
D75*
X96774Y211734D03*
D14*
X70028Y211887D03*
X78715Y211887D03*
X82067Y211887D03*
X89230Y211887D03*
X101117Y211887D03*
D75*
X74371Y211887D03*
D63*
X85649Y211887D03*
D75*
X96774Y211887D03*
D14*
X78715Y212039D03*
X82067Y212039D03*
X89230Y212039D03*
D80*
X74295Y212039D03*
D63*
X85649Y212039D03*
D73*
X96850Y212039D03*
D14*
X69875Y212192D03*
X78715Y212192D03*
X82067Y212192D03*
X89230Y212192D03*
D80*
X74295Y212192D03*
D63*
X85649Y212192D03*
D81*
X96926Y212192D03*
D14*
X78715Y212344D03*
X82067Y212344D03*
X89230Y212344D03*
X101422Y212344D03*
D81*
X74219Y212344D03*
D63*
X85649Y212344D03*
D81*
X96926Y212344D03*
D14*
X69723Y212496D03*
X78715Y212496D03*
X82067Y212496D03*
X89230Y212496D03*
D81*
X74219Y212496D03*
D63*
X85649Y212496D03*
D82*
X97003Y212496D03*
D14*
X78715Y212649D03*
X82067Y212649D03*
X89230Y212649D03*
X101575Y212649D03*
D82*
X74143Y212649D03*
D63*
X85649Y212649D03*
D82*
X97003Y212649D03*
D14*
X78715Y212801D03*
X82067Y212801D03*
X89230Y212801D03*
D83*
X74066Y212801D03*
D63*
X85649Y212801D03*
D83*
X97079Y212801D03*
D14*
X69418Y212954D03*
X78715Y212954D03*
X82067Y212954D03*
X89230Y212954D03*
X92583Y212954D03*
X101727Y212954D03*
D83*
X74066Y212954D03*
D63*
X85649Y212954D03*
D82*
X97155Y212954D03*
D14*
X78715Y213106D03*
X82067Y213106D03*
X89230Y213106D03*
X92583Y213106D03*
D84*
X73990Y213106D03*
D63*
X85649Y213106D03*
D83*
X97231Y213106D03*
D14*
X69266Y213258D03*
X78715Y213258D03*
X82067Y213258D03*
X89230Y213258D03*
X92583Y213258D03*
D84*
X73990Y213258D03*
D63*
X85649Y213258D03*
D84*
X97307Y213258D03*
D14*
X78715Y213411D03*
X82067Y213411D03*
X89230Y213411D03*
X92583Y213411D03*
X102032Y213411D03*
D85*
X73914Y213411D03*
D63*
X85649Y213411D03*
D84*
X97307Y213411D03*
D14*
X69113Y213563D03*
X78715Y213563D03*
X82067Y213563D03*
X89230Y213563D03*
X92583Y213563D03*
D85*
X73914Y213563D03*
D63*
X85649Y213563D03*
D85*
X97384Y213563D03*
D14*
X78715Y213716D03*
X82067Y213716D03*
X89230Y213716D03*
X92583Y213716D03*
X102184Y213716D03*
D86*
X73838Y213716D03*
D63*
X85649Y213716D03*
D85*
X97384Y213716D03*
D14*
X78715Y213868D03*
X82067Y213868D03*
X89230Y213868D03*
X92583Y213868D03*
D87*
X73762Y213868D03*
D63*
X85649Y213868D03*
D86*
X97460Y213868D03*
D14*
X68809Y214020D03*
X78715Y214020D03*
X82067Y214020D03*
X92583Y214020D03*
D87*
X73762Y214020D03*
D63*
X85649Y214020D03*
D87*
X97536Y214020D03*
D14*
X78715Y214173D03*
X82067Y214173D03*
X92583Y214173D03*
X102489Y214173D03*
D88*
X73685Y214173D03*
D63*
X85649Y214173D03*
D87*
X97536Y214173D03*
D14*
X68656Y214325D03*
X78715Y214325D03*
X82067Y214325D03*
X92583Y214325D03*
D88*
X73685Y214325D03*
D63*
X85649Y214325D03*
D88*
X97612Y214325D03*
D14*
X78715Y214478D03*
X82067Y214478D03*
X92583Y214478D03*
X102641Y214478D03*
D89*
X73609Y214478D03*
D63*
X85649Y214478D03*
D88*
X97612Y214478D03*
D14*
X68504Y214630D03*
X78715Y214630D03*
X82067Y214630D03*
X92583Y214630D03*
D89*
X73609Y214630D03*
D63*
X85649Y214630D03*
D89*
X97688Y214630D03*
D14*
X78715Y214782D03*
X82067Y214782D03*
X92583Y214782D03*
X102794Y214782D03*
D90*
X73533Y214782D03*
D63*
X85649Y214782D03*
D89*
X97688Y214782D03*
D14*
X78715Y214935D03*
X82067Y214935D03*
X92583Y214935D03*
D91*
X73457Y214935D03*
D63*
X85649Y214935D03*
D90*
X97765Y214935D03*
D14*
X68199Y215087D03*
X78715Y215087D03*
X82067Y215087D03*
X92583Y215087D03*
D91*
X73457Y215087D03*
D63*
X85649Y215087D03*
D91*
X97841Y215087D03*
D14*
X78715Y215240D03*
X82067Y215240D03*
X92583Y215240D03*
X103099Y215240D03*
D92*
X73381Y215240D03*
D63*
X85649Y215240D03*
D91*
X97841Y215240D03*
D14*
X68047Y215392D03*
X78715Y215392D03*
X82067Y215392D03*
X92583Y215392D03*
D92*
X73381Y215392D03*
D63*
X85649Y215392D03*
D92*
X97917Y215392D03*
D14*
X78715Y215544D03*
X82067Y215544D03*
X92583Y215544D03*
X103251Y215544D03*
D93*
X73304Y215544D03*
D63*
X85649Y215544D03*
D92*
X97917Y215544D03*
D14*
X67894Y215697D03*
X78715Y215697D03*
X82067Y215697D03*
X92583Y215697D03*
D93*
X73304Y215697D03*
D63*
X85649Y215697D03*
D93*
X97993Y215697D03*
D14*
X78715Y215849D03*
X82067Y215849D03*
X92583Y215849D03*
X103403Y215849D03*
D94*
X73228Y215849D03*
D63*
X85649Y215849D03*
D93*
X97993Y215849D03*
D14*
X78715Y216002D03*
X82067Y216002D03*
X92583Y216002D03*
D95*
X73152Y216002D03*
D63*
X85649Y216002D03*
D94*
X98069Y216002D03*
D14*
X67589Y216154D03*
X78715Y216154D03*
X82067Y216154D03*
X92583Y216154D03*
D95*
X73152Y216154D03*
D63*
X85649Y216154D03*
D95*
X98146Y216154D03*
D14*
X78715Y216306D03*
X82067Y216306D03*
X92583Y216306D03*
X103708Y216306D03*
D96*
X73076Y216306D03*
D63*
X85649Y216306D03*
D95*
X98146Y216306D03*
D14*
X67437Y216459D03*
X78715Y216459D03*
X82067Y216459D03*
X92583Y216459D03*
D96*
X73076Y216459D03*
D63*
X85649Y216459D03*
D96*
X98222Y216459D03*
D14*
X78715Y216611D03*
X82067Y216611D03*
X92583Y216611D03*
X103861Y216611D03*
D97*
X73000Y216611D03*
D63*
X85649Y216611D03*
D96*
X98222Y216611D03*
D14*
X78715Y216764D03*
X82067Y216764D03*
X92583Y216764D03*
D98*
X72923Y216764D03*
D63*
X85649Y216764D03*
D97*
X98298Y216764D03*
D14*
X67132Y216916D03*
X78715Y216916D03*
X82067Y216916D03*
X92583Y216916D03*
X104013Y216916D03*
D98*
X72923Y216916D03*
D63*
X85649Y216916D03*
D97*
X98298Y216916D03*
D14*
X78715Y217068D03*
X82067Y217068D03*
X92583Y217068D03*
X104165Y217068D03*
D99*
X72847Y217068D03*
D63*
X85649Y217068D03*
D98*
X98374Y217068D03*
D14*
X66980Y217221D03*
X78715Y217221D03*
X82067Y217221D03*
X92583Y217221D03*
D99*
X72847Y217221D03*
D63*
X85649Y217221D03*
D99*
X98450Y217221D03*
D14*
X78715Y217373D03*
X82067Y217373D03*
X92583Y217373D03*
X104318Y217373D03*
D100*
X72771Y217373D03*
D63*
X85649Y217373D03*
D99*
X98450Y217373D03*
D14*
X66827Y217526D03*
X78715Y217526D03*
X82067Y217526D03*
X92583Y217526D03*
D100*
X72771Y217526D03*
D63*
X85649Y217526D03*
D100*
X98527Y217526D03*
D14*
X78715Y217678D03*
X82067Y217678D03*
X92583Y217678D03*
X104470Y217678D03*
D101*
X72695Y217678D03*
D63*
X85649Y217678D03*
D100*
X98527Y217678D03*
D14*
X78715Y217830D03*
X82067Y217830D03*
X92583Y217830D03*
D102*
X72619Y217830D03*
D63*
X85649Y217830D03*
D101*
X98603Y217830D03*
D14*
X66523Y217983D03*
X78715Y217983D03*
X82067Y217983D03*
X92583Y217983D03*
D102*
X72619Y217983D03*
D63*
X85649Y217983D03*
D102*
X98679Y217983D03*
D14*
X78715Y218135D03*
X82067Y218135D03*
X92583Y218135D03*
X104775Y218135D03*
D103*
X72542Y218135D03*
D63*
X85649Y218135D03*
D102*
X98679Y218135D03*
D14*
X66370Y218288D03*
X78715Y218288D03*
X82067Y218288D03*
X92583Y218288D03*
D103*
X72542Y218288D03*
D63*
X85649Y218288D03*
D103*
X98755Y218288D03*
D14*
X78715Y218440D03*
X82067Y218440D03*
X92583Y218440D03*
X104927Y218440D03*
D104*
X72466Y218440D03*
D63*
X85649Y218440D03*
D103*
X98755Y218440D03*
D14*
X66218Y218592D03*
X78715Y218592D03*
X82067Y218592D03*
X92583Y218592D03*
D104*
X72466Y218592D03*
D63*
X85649Y218592D03*
D104*
X98831Y218592D03*
D14*
X78715Y218745D03*
X82067Y218745D03*
X92583Y218745D03*
X105080Y218745D03*
D105*
X72390Y218745D03*
D63*
X85649Y218745D03*
D104*
X98831Y218745D03*
D14*
X78715Y218897D03*
X82067Y218897D03*
X92583Y218897D03*
D106*
X72314Y218897D03*
D63*
X85649Y218897D03*
D105*
X98908Y218897D03*
D14*
X65913Y219050D03*
X78715Y219050D03*
X82067Y219050D03*
X92583Y219050D03*
D106*
X72314Y219050D03*
D63*
X85649Y219050D03*
D106*
X98984Y219050D03*
D14*
X82067Y219202D03*
X92583Y219202D03*
X105385Y219202D03*
D107*
X72238Y219202D03*
D63*
X85649Y219202D03*
D106*
X98984Y219202D03*
D14*
X65761Y219354D03*
X82067Y219354D03*
X92583Y219354D03*
D107*
X72238Y219354D03*
D63*
X85649Y219354D03*
D107*
X99060Y219354D03*
D14*
X82067Y219507D03*
X92583Y219507D03*
X105537Y219507D03*
D108*
X72161Y219507D03*
D63*
X85649Y219507D03*
D107*
X99060Y219507D03*
D14*
X65608Y219659D03*
X82067Y219659D03*
X92583Y219659D03*
D108*
X72161Y219659D03*
D63*
X85649Y219659D03*
D108*
X99136Y219659D03*
D14*
X82067Y219812D03*
X92583Y219812D03*
X105689Y219812D03*
D13*
X72085Y219812D03*
D63*
X85649Y219812D03*
D108*
X99136Y219812D03*
D14*
X82220Y219964D03*
X89078Y219964D03*
X92583Y219964D03*
X105842Y219964D03*
D109*
X72009Y219964D03*
D110*
X85649Y219964D03*
D13*
X99212Y219964D03*
D14*
X65303Y220116D03*
X92583Y220116D03*
D109*
X72009Y220116D03*
X99289Y220116D03*
D14*
X92583Y220269D03*
X105994Y220269D03*
D111*
X71933Y220269D03*
D109*
X99289Y220269D03*
D14*
X65151Y220421D03*
X92583Y220421D03*
D111*
X71933Y220421D03*
X99365Y220421D03*
D14*
X92583Y220574D03*
X106147Y220574D03*
D16*
X71857Y220574D03*
D111*
X99365Y220574D03*
D14*
X64999Y220726D03*
X92583Y220726D03*
D16*
X71857Y220726D03*
X99441Y220726D03*
D14*
X92583Y220878D03*
X106299Y220878D03*
D112*
X71780Y220878D03*
D16*
X99441Y220878D03*
D14*
X64846Y221031D03*
X92583Y221031D03*
D112*
X71780Y221031D03*
X99517Y221031D03*
D14*
X64846Y221183D03*
X92583Y221183D03*
D112*
X71780Y221183D03*
X99517Y221183D03*
D14*
X92583Y221336D03*
D113*
X71704Y221336D03*
D112*
X99517Y221336D03*
D14*
X92583Y221488D03*
X106451Y221488D03*
D113*
X71704Y221488D03*
D112*
X99517Y221488D03*
D14*
X92583Y221640D03*
X106451Y221640D03*
D113*
X71704Y221640D03*
D112*
X99517Y221640D03*
D14*
X92583Y221793D03*
X106451Y221793D03*
D113*
X71704Y221793D03*
D112*
X99517Y221793D03*
D14*
X92583Y221945D03*
X106451Y221945D03*
D113*
X71704Y221945D03*
D112*
X99517Y221945D03*
D14*
X92583Y222098D03*
X106451Y222098D03*
D113*
X71704Y222098D03*
D112*
X99517Y222098D03*
D14*
X92583Y222250D03*
D113*
X71704Y222250D03*
D112*
X99517Y222250D03*
D14*
X64846Y222402D03*
X92583Y222402D03*
D112*
X71780Y222402D03*
X99517Y222402D03*
D14*
X92583Y222555D03*
X106299Y222555D03*
D112*
X71780Y222555D03*
D16*
X99441Y222555D03*
D14*
X92583Y222707D03*
X106299Y222707D03*
D112*
X71780Y222707D03*
D16*
X99441Y222707D03*
D14*
X64999Y222860D03*
X92583Y222860D03*
D16*
X71857Y222860D03*
X99441Y222860D03*
D14*
X92583Y223012D03*
X106147Y223012D03*
D16*
X71857Y223012D03*
D111*
X99365Y223012D03*
D14*
X65151Y223164D03*
X92583Y223164D03*
D111*
X71933Y223164D03*
X99365Y223164D03*
D14*
X92583Y223317D03*
D111*
X71933Y223317D03*
D109*
X99289Y223317D03*
D14*
X92583Y223469D03*
X105842Y223469D03*
D109*
X72009Y223469D03*
D13*
X99212Y223469D03*
D14*
X65456Y223622D03*
X92583Y223622D03*
D13*
X72085Y223622D03*
D63*
X85649Y223622D03*
D13*
X99212Y223622D03*
D14*
X82067Y223774D03*
X92583Y223774D03*
X105689Y223774D03*
D13*
X72085Y223774D03*
D63*
X85649Y223774D03*
D108*
X99136Y223774D03*
D14*
X65608Y223926D03*
X82067Y223926D03*
X92583Y223926D03*
D108*
X72161Y223926D03*
D63*
X85649Y223926D03*
D108*
X99136Y223926D03*
D14*
X82067Y224079D03*
X92583Y224079D03*
X105537Y224079D03*
D108*
X72161Y224079D03*
D63*
X85649Y224079D03*
D107*
X99060Y224079D03*
D14*
X65761Y224231D03*
X82067Y224231D03*
X92583Y224231D03*
X105385Y224231D03*
D107*
X72238Y224231D03*
D63*
X85649Y224231D03*
D106*
X98984Y224231D03*
D14*
X65913Y224384D03*
X82067Y224384D03*
X92583Y224384D03*
D106*
X72314Y224384D03*
D63*
X85649Y224384D03*
D106*
X98984Y224384D03*
D14*
X82067Y224536D03*
X92583Y224536D03*
X105232Y224536D03*
D106*
X72314Y224536D03*
D63*
X85649Y224536D03*
D105*
X98908Y224536D03*
D14*
X66065Y224688D03*
X82067Y224688D03*
X92583Y224688D03*
D105*
X72390Y224688D03*
D63*
X85649Y224688D03*
D105*
X98908Y224688D03*
D14*
X82067Y224841D03*
X92583Y224841D03*
X105080Y224841D03*
D105*
X72390Y224841D03*
D63*
X85649Y224841D03*
D104*
X98831Y224841D03*
D14*
X66218Y224993D03*
X82067Y224993D03*
X92583Y224993D03*
D104*
X72466Y224993D03*
D63*
X85649Y224993D03*
D104*
X98831Y224993D03*
D14*
X82067Y225146D03*
X92583Y225146D03*
X104927Y225146D03*
D104*
X72466Y225146D03*
D63*
X85649Y225146D03*
D103*
X98755Y225146D03*
D14*
X82067Y225298D03*
X92583Y225298D03*
X104775Y225298D03*
D103*
X72542Y225298D03*
D63*
X85649Y225298D03*
D102*
X98679Y225298D03*
D14*
X66523Y225450D03*
X82067Y225450D03*
X92583Y225450D03*
D102*
X72619Y225450D03*
D63*
X85649Y225450D03*
D102*
X98679Y225450D03*
D14*
X82067Y225603D03*
X92583Y225603D03*
X104623Y225603D03*
D102*
X72619Y225603D03*
D63*
X85649Y225603D03*
D101*
X98603Y225603D03*
D14*
X66675Y225755D03*
X82067Y225755D03*
X92583Y225755D03*
D101*
X72695Y225755D03*
D63*
X85649Y225755D03*
D101*
X98603Y225755D03*
D14*
X82067Y225908D03*
X92583Y225908D03*
X104470Y225908D03*
D101*
X72695Y225908D03*
D63*
X85649Y225908D03*
D100*
X98527Y225908D03*
D14*
X66827Y226060D03*
X82067Y226060D03*
X92583Y226060D03*
D100*
X72771Y226060D03*
D63*
X85649Y226060D03*
D100*
X98527Y226060D03*
D14*
X82067Y226212D03*
X92583Y226212D03*
D100*
X72771Y226212D03*
D63*
X85649Y226212D03*
D99*
X98450Y226212D03*
D14*
X82067Y226365D03*
X92583Y226365D03*
X104165Y226365D03*
D99*
X72847Y226365D03*
D63*
X85649Y226365D03*
D98*
X98374Y226365D03*
D14*
X67132Y226517D03*
X82067Y226517D03*
X92583Y226517D03*
D98*
X72923Y226517D03*
D63*
X85649Y226517D03*
D98*
X98374Y226517D03*
D14*
X82067Y226670D03*
X92583Y226670D03*
X104013Y226670D03*
D98*
X72923Y226670D03*
D63*
X85649Y226670D03*
D97*
X98298Y226670D03*
D14*
X67285Y226822D03*
X82067Y226822D03*
X92583Y226822D03*
D97*
X73000Y226822D03*
D63*
X85649Y226822D03*
D97*
X98298Y226822D03*
D14*
X82067Y226974D03*
X92583Y226974D03*
X103861Y226974D03*
D97*
X73000Y226974D03*
D63*
X85649Y226974D03*
D96*
X98222Y226974D03*
D14*
X67437Y227127D03*
X82067Y227127D03*
X92583Y227127D03*
D96*
X73076Y227127D03*
D63*
X85649Y227127D03*
D96*
X98222Y227127D03*
D14*
X82067Y227279D03*
X92583Y227279D03*
D96*
X73076Y227279D03*
D63*
X85649Y227279D03*
D95*
X98146Y227279D03*
D14*
X82067Y227432D03*
X92583Y227432D03*
X103556Y227432D03*
D95*
X73152Y227432D03*
D63*
X85649Y227432D03*
D94*
X98069Y227432D03*
D14*
X67742Y227584D03*
X82067Y227584D03*
X92583Y227584D03*
D94*
X73228Y227584D03*
D63*
X85649Y227584D03*
D94*
X98069Y227584D03*
D14*
X82067Y227736D03*
X92583Y227736D03*
X103403Y227736D03*
D94*
X73228Y227736D03*
D63*
X85649Y227736D03*
D93*
X97993Y227736D03*
D14*
X82067Y227889D03*
X92583Y227889D03*
D93*
X73304Y227889D03*
D63*
X85649Y227889D03*
D93*
X97993Y227889D03*
D14*
X68047Y228041D03*
X82067Y228041D03*
X92583Y228041D03*
X103251Y228041D03*
D92*
X73381Y228041D03*
D63*
X85649Y228041D03*
D92*
X97917Y228041D03*
D14*
X82067Y228194D03*
X92583Y228194D03*
X103099Y228194D03*
D92*
X73381Y228194D03*
D63*
X85649Y228194D03*
D91*
X97841Y228194D03*
D14*
X68199Y228346D03*
X82067Y228346D03*
X92583Y228346D03*
D91*
X73457Y228346D03*
D63*
X85649Y228346D03*
D91*
X97841Y228346D03*
D14*
X82067Y228498D03*
X92583Y228498D03*
X102946Y228498D03*
D91*
X73457Y228498D03*
D63*
X85649Y228498D03*
D90*
X97765Y228498D03*
D14*
X68351Y228651D03*
X78715Y228651D03*
X82067Y228651D03*
X92583Y228651D03*
D90*
X73533Y228651D03*
D63*
X85649Y228651D03*
D90*
X97765Y228651D03*
D14*
X68504Y228803D03*
X78715Y228803D03*
X82067Y228803D03*
X92583Y228803D03*
X102794Y228803D03*
D89*
X73609Y228803D03*
D63*
X85649Y228803D03*
D89*
X97688Y228803D03*
D14*
X78715Y228956D03*
X82067Y228956D03*
X92583Y228956D03*
D89*
X73609Y228956D03*
D63*
X85649Y228956D03*
D89*
X97688Y228956D03*
D14*
X68656Y229108D03*
X78715Y229108D03*
X82067Y229108D03*
X92583Y229108D03*
X102641Y229108D03*
D88*
X73685Y229108D03*
D63*
X85649Y229108D03*
D88*
X97612Y229108D03*
D14*
X78715Y229260D03*
X82067Y229260D03*
X92583Y229260D03*
X102489Y229260D03*
D88*
X73685Y229260D03*
D63*
X85649Y229260D03*
D87*
X97536Y229260D03*
D14*
X68809Y229413D03*
X78715Y229413D03*
X82067Y229413D03*
X92583Y229413D03*
D87*
X73762Y229413D03*
D63*
X85649Y229413D03*
D87*
X97536Y229413D03*
D14*
X78715Y229565D03*
X82067Y229565D03*
X92583Y229565D03*
X102337Y229565D03*
D87*
X73762Y229565D03*
D63*
X85649Y229565D03*
D86*
X97460Y229565D03*
D14*
X68961Y229718D03*
X78715Y229718D03*
X82067Y229718D03*
X92583Y229718D03*
D86*
X73838Y229718D03*
D63*
X85649Y229718D03*
D86*
X97460Y229718D03*
D14*
X69113Y229870D03*
X78715Y229870D03*
X82067Y229870D03*
X92583Y229870D03*
X102184Y229870D03*
D85*
X73914Y229870D03*
D63*
X85649Y229870D03*
D85*
X97384Y229870D03*
D14*
X78715Y230022D03*
X82067Y230022D03*
X92583Y230022D03*
D85*
X73914Y230022D03*
D63*
X85649Y230022D03*
D85*
X97384Y230022D03*
D14*
X69266Y230175D03*
X78715Y230175D03*
X82067Y230175D03*
X92583Y230175D03*
D84*
X73990Y230175D03*
D63*
X85649Y230175D03*
D84*
X97307Y230175D03*
D14*
X78715Y230327D03*
X82067Y230327D03*
X92583Y230327D03*
X101879Y230327D03*
D84*
X73990Y230327D03*
D63*
X85649Y230327D03*
D83*
X97231Y230327D03*
D14*
X69418Y230480D03*
X78715Y230480D03*
X82067Y230480D03*
X92583Y230480D03*
D83*
X74066Y230480D03*
D63*
X85649Y230480D03*
D83*
X97231Y230480D03*
D14*
X78715Y230632D03*
X82067Y230632D03*
X92583Y230632D03*
X101727Y230632D03*
D83*
X74066Y230632D03*
D63*
X85649Y230632D03*
D82*
X97155Y230632D03*
D14*
X69571Y230784D03*
X78715Y230784D03*
X82067Y230784D03*
X92583Y230784D03*
D82*
X74143Y230784D03*
D63*
X85649Y230784D03*
D82*
X97155Y230784D03*
D14*
X69723Y230937D03*
X78715Y230937D03*
X82067Y230937D03*
X92583Y230937D03*
X101575Y230937D03*
D81*
X74219Y230937D03*
D63*
X85649Y230937D03*
D81*
X97079Y230937D03*
D14*
X78715Y231089D03*
X82067Y231089D03*
X92583Y231089D03*
X101422Y231089D03*
D81*
X74219Y231089D03*
D63*
X85649Y231089D03*
D80*
X97003Y231089D03*
D14*
X69875Y231242D03*
X78715Y231242D03*
X82067Y231242D03*
X92583Y231242D03*
D80*
X74295Y231242D03*
D63*
X85649Y231242D03*
D80*
X97003Y231242D03*
D14*
X78715Y231394D03*
X82067Y231394D03*
X92583Y231394D03*
X101270Y231394D03*
D80*
X74295Y231394D03*
D63*
X85649Y231394D03*
D75*
X96926Y231394D03*
D14*
X70028Y231546D03*
X78715Y231546D03*
X82067Y231546D03*
X92583Y231546D03*
D75*
X74371Y231546D03*
D63*
X85649Y231546D03*
D75*
X96926Y231546D03*
D14*
X78715Y231699D03*
X82067Y231699D03*
X92583Y231699D03*
X101117Y231699D03*
D75*
X74371Y231699D03*
D63*
X85649Y231699D03*
D76*
X96850Y231699D03*
D14*
X78715Y231851D03*
X82067Y231851D03*
X92583Y231851D03*
D76*
X74447Y231851D03*
D63*
X85649Y231851D03*
D76*
X96850Y231851D03*
D14*
X70333Y232004D03*
X78715Y232004D03*
X82067Y232004D03*
X92583Y232004D03*
X100965Y232004D03*
D79*
X74524Y232004D03*
D63*
X85649Y232004D03*
D79*
X96774Y232004D03*
D14*
X78715Y232156D03*
X92583Y232156D03*
X100813Y232156D03*
D79*
X74524Y232156D03*
D64*
X85573Y232156D03*
D72*
X96698Y232156D03*
D14*
X70485Y232308D03*
X92583Y232308D03*
D79*
X74676Y232308D03*
D64*
X85573Y232308D03*
D72*
X96698Y232308D03*
D14*
X78867Y232461D03*
X81915Y232461D03*
X92583Y232461D03*
X100660Y232461D03*
D79*
X74676Y232461D03*
D64*
X85573Y232461D03*
D77*
X96622Y232461D03*
D14*
X70637Y232613D03*
X92583Y232613D03*
D79*
X74828Y232613D03*
D65*
X85496Y232613D03*
D77*
X96622Y232613D03*
D14*
X70790Y232766D03*
X79019Y232766D03*
X92583Y232766D03*
X100508Y232766D03*
D72*
X74905Y232766D03*
D68*
X85420Y232766D03*
D74*
X96545Y232766D03*
D14*
X79172Y232918D03*
X81610Y232918D03*
X92583Y232918D03*
D78*
X74981Y232918D03*
D68*
X85420Y232918D03*
D74*
X96545Y232918D03*
D14*
X70942Y233070D03*
X79324Y233070D03*
X81458Y233070D03*
X92583Y233070D03*
X100355Y233070D03*
D79*
X75133Y233070D03*
D71*
X85344Y233070D03*
X96469Y233070D03*
D14*
X79629Y233223D03*
X81153Y233223D03*
X92583Y233223D03*
X100203Y233223D03*
D75*
X75286Y233223D03*
D77*
X85192Y233223D03*
D68*
X96393Y233223D03*
D14*
X71095Y233375D03*
D114*
X80086Y233375D03*
X80696Y233375D03*
D14*
X92583Y233375D03*
D73*
X75514Y233375D03*
D79*
X85039Y233375D03*
D68*
X96393Y233375D03*
D14*
X92583Y233528D03*
X100051Y233528D03*
D69*
X80162Y233528D03*
D65*
X96317Y233528D03*
D14*
X71247Y233680D03*
X92583Y233680D03*
D67*
X80239Y233680D03*
D65*
X96317Y233680D03*
D14*
X71399Y233832D03*
X92583Y233832D03*
X99898Y233832D03*
D66*
X80315Y233832D03*
D64*
X96241Y233832D03*
D14*
X92583Y233985D03*
D66*
X80315Y233985D03*
D64*
X96241Y233985D03*
D14*
X71552Y234137D03*
X92583Y234137D03*
D62*
X80391Y234137D03*
D63*
X96164Y234137D03*
D14*
X92583Y234290D03*
X99593Y234290D03*
D62*
X80391Y234290D03*
D61*
X96088Y234290D03*
D14*
X71704Y234442D03*
X92583Y234442D03*
D60*
X80467Y234442D03*
D61*
X96088Y234442D03*
D14*
X92583Y234594D03*
X99441Y234594D03*
D60*
X80467Y234594D03*
D59*
X96012Y234594D03*
D14*
X71857Y234747D03*
X92583Y234747D03*
D58*
X80543Y234747D03*
D59*
X96012Y234747D03*
D14*
X72009Y234899D03*
X92583Y234899D03*
X99289Y234899D03*
D56*
X80620Y234899D03*
D57*
X95936Y234899D03*
D14*
X92583Y235052D03*
X99136Y235052D03*
D56*
X80620Y235052D03*
D55*
X95860Y235052D03*
D14*
X72161Y235204D03*
X92583Y235204D03*
D54*
X80696Y235204D03*
D55*
X95860Y235204D03*
D14*
X92583Y235356D03*
X98984Y235356D03*
D54*
X80696Y235356D03*
D53*
X95783Y235356D03*
D14*
X72314Y235509D03*
X92583Y235509D03*
D52*
X80772Y235509D03*
D53*
X95783Y235509D03*
D14*
X72466Y235661D03*
X92583Y235661D03*
X98831Y235661D03*
D50*
X80848Y235661D03*
D51*
X95707Y235661D03*
D14*
X92583Y235814D03*
D50*
X80848Y235814D03*
D51*
X95707Y235814D03*
D14*
X72619Y235966D03*
X92583Y235966D03*
X98679Y235966D03*
D48*
X80924Y235966D03*
D49*
X95631Y235966D03*
D14*
X92583Y236118D03*
X98527Y236118D03*
D48*
X80924Y236118D03*
D47*
X95555Y236118D03*
D14*
X72771Y236271D03*
X92583Y236271D03*
D46*
X81001Y236271D03*
D47*
X95555Y236271D03*
D14*
X92583Y236423D03*
X98374Y236423D03*
D46*
X81001Y236423D03*
D45*
X95479Y236423D03*
D14*
X72923Y236576D03*
X92583Y236576D03*
D44*
X81077Y236576D03*
D45*
X95479Y236576D03*
D14*
X73076Y236728D03*
X92583Y236728D03*
X98222Y236728D03*
D42*
X81153Y236728D03*
D43*
X95402Y236728D03*
D14*
X92583Y236880D03*
D42*
X81153Y236880D03*
D43*
X95402Y236880D03*
D14*
X73228Y237033D03*
X92583Y237033D03*
X98069Y237033D03*
D40*
X81229Y237033D03*
D41*
X95326Y237033D03*
D14*
X92583Y237185D03*
X97917Y237185D03*
D40*
X81229Y237185D03*
D39*
X95250Y237185D03*
D14*
X73381Y237338D03*
X92583Y237338D03*
D38*
X81305Y237338D03*
D39*
X95250Y237338D03*
D14*
X92583Y237490D03*
X97765Y237490D03*
D38*
X81305Y237490D03*
D37*
X95174Y237490D03*
D14*
X73533Y237642D03*
X92583Y237642D03*
D36*
X81382Y237642D03*
D37*
X95174Y237642D03*
D14*
X73685Y237795D03*
X92583Y237795D03*
X97612Y237795D03*
D34*
X81458Y237795D03*
D35*
X95098Y237795D03*
D14*
X92583Y237947D03*
X97460Y237947D03*
D34*
X81458Y237947D03*
D33*
X95021Y237947D03*
D14*
X73838Y238100D03*
X92583Y238100D03*
D32*
X81534Y238100D03*
D33*
X95021Y238100D03*
D14*
X92583Y238252D03*
X97307Y238252D03*
D32*
X81534Y238252D03*
D31*
X94945Y238252D03*
D70*
X74219Y238404D03*
D14*
X73990Y238404D03*
X92583Y238404D03*
D26*
X81763Y238404D03*
D31*
X94945Y238404D03*
D115*
X74524Y238557D03*
D14*
X92583Y238557D03*
X97155Y238557D03*
X74143Y238557D03*
D116*
X81991Y238557D03*
D29*
X94869Y238557D03*
D117*
X74752Y238709D03*
D14*
X74143Y238709D03*
X92583Y238709D03*
D113*
X82220Y238709D03*
D29*
X94869Y238709D03*
D118*
X74981Y238862D03*
D14*
X74295Y238862D03*
X92583Y238862D03*
X97003Y238862D03*
D16*
X82372Y238862D03*
D27*
X94793Y238862D03*
D119*
X75286Y239014D03*
D14*
X92583Y239014D03*
X96850Y239014D03*
X74447Y239014D03*
D13*
X82601Y239014D03*
D25*
X94717Y239014D03*
D120*
X75438Y239166D03*
D121*
X92812Y239166D03*
D14*
X74447Y239166D03*
X92583Y239166D03*
D107*
X82753Y239166D03*
D21*
X94869Y239166D03*
D122*
X75743Y239319D03*
D123*
X93040Y239319D03*
D14*
X74600Y239319D03*
X92583Y239319D03*
D104*
X82982Y239319D03*
D124*
X95021Y239319D03*
D125*
X76048Y239471D03*
D126*
X93193Y239471D03*
D14*
X74752Y239471D03*
X92583Y239471D03*
D101*
X83210Y239471D03*
D127*
X95098Y239471D03*
D128*
X76276Y239624D03*
D119*
X93421Y239624D03*
D14*
X74905Y239624D03*
X92583Y239624D03*
X96241Y239624D03*
D99*
X83363Y239624D03*
D129*
X95174Y239624D03*
D127*
X76657Y239776D03*
D120*
X93574Y239776D03*
D14*
X75209Y239776D03*
X92583Y239776D03*
X96088Y239776D03*
D96*
X83591Y239776D03*
D119*
X95250Y239776D03*
D127*
X76962Y239928D03*
D130*
X93802Y239928D03*
D14*
X75514Y239928D03*
X92583Y239928D03*
X95783Y239928D03*
D94*
X83744Y239928D03*
D123*
X95326Y239928D03*
D125*
X77572Y240081D03*
D130*
X93802Y240081D03*
D114*
X75971Y240081D03*
D14*
X92583Y240081D03*
D121*
X95250Y240081D03*
D14*
X76276Y240081D03*
D91*
X83972Y240081D03*
D14*
X95021Y240081D03*
D131*
X-44413Y205788D02*
X-44413Y195688D01*
X33788Y195688D02*
X47588Y195688D01*
X-30613Y195688D02*
X-44413Y195688D01*
X-44413Y228488D02*
X-44413Y265588D01*
X-44413Y287988D02*
X-44413Y300688D01*
X47588Y265588D02*
X47588Y228488D01*
X47588Y206088D02*
X47588Y195688D01*
X47588Y287988D02*
X47588Y300688D01*
X-44413Y300688D01*
D132*
X28588Y188788D02*
X28590Y188851D01*
X28596Y188913D01*
X28606Y188975D01*
X28619Y189037D01*
X28637Y189097D01*
X28658Y189156D01*
X28683Y189214D01*
X28712Y189270D01*
X28744Y189324D01*
X28779Y189376D01*
X28817Y189425D01*
X28859Y189473D01*
X28903Y189517D01*
X28951Y189559D01*
X29000Y189597D01*
X29052Y189632D01*
X29106Y189664D01*
X29162Y189693D01*
X29220Y189718D01*
X29279Y189739D01*
X29339Y189757D01*
X29401Y189770D01*
X29463Y189780D01*
X29525Y189786D01*
X29588Y189788D01*
X29651Y189786D01*
X29713Y189780D01*
X29775Y189770D01*
X29837Y189757D01*
X29897Y189739D01*
X29956Y189718D01*
X30014Y189693D01*
X30070Y189664D01*
X30124Y189632D01*
X30176Y189597D01*
X30225Y189559D01*
X30273Y189517D01*
X30317Y189473D01*
X30359Y189425D01*
X30397Y189376D01*
X30432Y189324D01*
X30464Y189270D01*
X30493Y189214D01*
X30518Y189156D01*
X30539Y189097D01*
X30557Y189037D01*
X30570Y188975D01*
X30580Y188913D01*
X30586Y188851D01*
X30588Y188788D01*
X30586Y188725D01*
X30580Y188663D01*
X30570Y188601D01*
X30557Y188539D01*
X30539Y188479D01*
X30518Y188420D01*
X30493Y188362D01*
X30464Y188306D01*
X30432Y188252D01*
X30397Y188200D01*
X30359Y188151D01*
X30317Y188103D01*
X30273Y188059D01*
X30225Y188017D01*
X30176Y187979D01*
X30124Y187944D01*
X30070Y187912D01*
X30014Y187883D01*
X29956Y187858D01*
X29897Y187837D01*
X29837Y187819D01*
X29775Y187806D01*
X29713Y187796D01*
X29651Y187790D01*
X29588Y187788D01*
X29525Y187790D01*
X29463Y187796D01*
X29401Y187806D01*
X29339Y187819D01*
X29279Y187837D01*
X29220Y187858D01*
X29162Y187883D01*
X29106Y187912D01*
X29052Y187944D01*
X29000Y187979D01*
X28951Y188017D01*
X28903Y188059D01*
X28859Y188103D01*
X28817Y188151D01*
X28779Y188200D01*
X28744Y188252D01*
X28712Y188306D01*
X28683Y188362D01*
X28658Y188420D01*
X28637Y188479D01*
X28619Y188539D01*
X28606Y188601D01*
X28596Y188663D01*
X28590Y188725D01*
X28588Y188788D01*
D131*
X-54995Y255655D02*
X-78355Y255655D01*
X-78355Y207895D02*
X-54995Y207895D01*
X-54995Y255655D01*
X-78355Y255655D02*
X-78355Y207895D01*
D11*
X-85866Y198881D02*
X-97550Y198881D01*
X-97550Y202127D01*
X-97548Y202240D01*
X-97542Y202353D01*
X-97532Y202466D01*
X-97518Y202579D01*
X-97501Y202691D01*
X-97479Y202802D01*
X-97454Y202912D01*
X-97424Y203022D01*
X-97391Y203130D01*
X-97354Y203237D01*
X-97314Y203343D01*
X-97269Y203447D01*
X-97221Y203550D01*
X-97170Y203651D01*
X-97115Y203750D01*
X-97057Y203847D01*
X-96995Y203942D01*
X-96930Y204035D01*
X-96862Y204125D01*
X-96791Y204213D01*
X-96716Y204299D01*
X-96639Y204382D01*
X-96559Y204462D01*
X-96476Y204539D01*
X-96390Y204614D01*
X-96302Y204685D01*
X-96212Y204753D01*
X-96119Y204818D01*
X-96024Y204880D01*
X-95927Y204938D01*
X-95828Y204993D01*
X-95727Y205044D01*
X-95624Y205092D01*
X-95520Y205137D01*
X-95414Y205177D01*
X-95307Y205214D01*
X-95199Y205247D01*
X-95089Y205277D01*
X-94979Y205302D01*
X-94868Y205324D01*
X-94756Y205341D01*
X-94643Y205355D01*
X-94530Y205365D01*
X-94417Y205371D01*
X-94304Y205373D01*
X-94191Y205371D01*
X-94078Y205365D01*
X-93965Y205355D01*
X-93852Y205341D01*
X-93740Y205324D01*
X-93629Y205302D01*
X-93519Y205277D01*
X-93409Y205247D01*
X-93301Y205214D01*
X-93194Y205177D01*
X-93088Y205137D01*
X-92984Y205092D01*
X-92881Y205044D01*
X-92780Y204993D01*
X-92681Y204938D01*
X-92584Y204880D01*
X-92489Y204818D01*
X-92396Y204753D01*
X-92306Y204685D01*
X-92218Y204614D01*
X-92132Y204539D01*
X-92049Y204462D01*
X-91969Y204382D01*
X-91892Y204299D01*
X-91817Y204213D01*
X-91746Y204125D01*
X-91678Y204035D01*
X-91613Y203942D01*
X-91551Y203847D01*
X-91493Y203750D01*
X-91438Y203651D01*
X-91387Y203550D01*
X-91339Y203447D01*
X-91294Y203343D01*
X-91254Y203237D01*
X-91217Y203130D01*
X-91184Y203022D01*
X-91154Y202912D01*
X-91129Y202802D01*
X-91107Y202691D01*
X-91090Y202579D01*
X-91076Y202466D01*
X-91066Y202353D01*
X-91060Y202240D01*
X-91058Y202127D01*
X-91058Y198881D01*
X-97550Y209338D02*
X-85866Y211934D01*
X-93655Y214531D01*
X-85866Y217127D01*
X-97550Y219723D01*
X-97550Y224694D02*
X-85866Y224694D01*
X-97550Y224694D02*
X-97550Y227939D01*
X-97548Y228052D01*
X-97542Y228165D01*
X-97532Y228278D01*
X-97518Y228391D01*
X-97501Y228503D01*
X-97479Y228614D01*
X-97454Y228724D01*
X-97424Y228834D01*
X-97391Y228942D01*
X-97354Y229049D01*
X-97314Y229155D01*
X-97269Y229259D01*
X-97221Y229362D01*
X-97170Y229463D01*
X-97115Y229562D01*
X-97057Y229659D01*
X-96995Y229754D01*
X-96930Y229847D01*
X-96862Y229937D01*
X-96791Y230025D01*
X-96716Y230111D01*
X-96639Y230194D01*
X-96559Y230274D01*
X-96476Y230351D01*
X-96390Y230426D01*
X-96302Y230497D01*
X-96212Y230565D01*
X-96119Y230630D01*
X-96024Y230692D01*
X-95927Y230750D01*
X-95828Y230805D01*
X-95727Y230856D01*
X-95624Y230904D01*
X-95520Y230949D01*
X-95414Y230989D01*
X-95307Y231026D01*
X-95199Y231059D01*
X-95089Y231089D01*
X-94979Y231114D01*
X-94868Y231136D01*
X-94756Y231153D01*
X-94643Y231167D01*
X-94530Y231177D01*
X-94417Y231183D01*
X-94304Y231185D01*
X-94191Y231183D01*
X-94078Y231177D01*
X-93965Y231167D01*
X-93852Y231153D01*
X-93740Y231136D01*
X-93629Y231114D01*
X-93519Y231089D01*
X-93409Y231059D01*
X-93301Y231026D01*
X-93194Y230989D01*
X-93088Y230949D01*
X-92984Y230904D01*
X-92881Y230856D01*
X-92780Y230805D01*
X-92681Y230750D01*
X-92584Y230692D01*
X-92489Y230630D01*
X-92396Y230565D01*
X-92306Y230497D01*
X-92218Y230426D01*
X-92132Y230351D01*
X-92049Y230274D01*
X-91969Y230194D01*
X-91892Y230111D01*
X-91817Y230025D01*
X-91746Y229937D01*
X-91678Y229847D01*
X-91613Y229754D01*
X-91551Y229659D01*
X-91493Y229562D01*
X-91438Y229463D01*
X-91387Y229362D01*
X-91339Y229259D01*
X-91294Y229155D01*
X-91254Y229049D01*
X-91217Y228942D01*
X-91184Y228834D01*
X-91154Y228724D01*
X-91129Y228614D01*
X-91107Y228503D01*
X-91090Y228391D01*
X-91076Y228278D01*
X-91066Y228165D01*
X-91060Y228052D01*
X-91058Y227939D01*
X-91058Y224694D01*
X-91058Y228588D02*
X-85866Y231185D01*
X-84567Y235556D02*
X-84567Y240749D01*
X-85866Y245598D02*
X-85866Y250790D01*
X-85866Y245598D02*
X-97550Y245598D01*
X-97550Y250790D01*
X-92357Y249492D02*
X-92357Y245598D01*
X-97550Y255481D02*
X-85866Y255481D01*
X-85866Y261972D02*
X-97550Y255481D01*
X-97550Y261972D02*
X-85866Y261972D01*
D10*
X39728Y162560D02*
X71247Y162560D01*
X-71247Y162560D02*
X-71247Y119638D01*
X-54188Y3048D02*
X54188Y3048D01*
X71247Y23154D02*
X71247Y162560D01*
X-71247Y97998D02*
X-71247Y23154D01*
X16728Y162560D02*
X18272Y162560D01*
X-4728Y162560D02*
X-49272Y162560D01*
D131*
X37188Y174625D02*
X37188Y177125D01*
X37188Y174625D02*
X37188Y172125D01*
X37188Y174625D02*
X42188Y177125D01*
X42188Y172125D02*
X37188Y174625D01*
X42188Y172125D02*
X42188Y177125D01*
D133*
X53406Y178322D02*
X53406Y170956D01*
X53406Y178322D02*
X55452Y178322D01*
X55541Y178320D01*
X55630Y178314D01*
X55719Y178304D01*
X55807Y178291D01*
X55895Y178274D01*
X55982Y178252D01*
X56067Y178227D01*
X56152Y178199D01*
X56235Y178166D01*
X56317Y178130D01*
X56397Y178091D01*
X56475Y178048D01*
X56551Y178002D01*
X56626Y177952D01*
X56698Y177899D01*
X56767Y177843D01*
X56834Y177784D01*
X56899Y177723D01*
X56960Y177658D01*
X57019Y177591D01*
X57075Y177522D01*
X57128Y177450D01*
X57178Y177375D01*
X57224Y177299D01*
X57267Y177221D01*
X57306Y177141D01*
X57342Y177059D01*
X57375Y176976D01*
X57403Y176891D01*
X57428Y176806D01*
X57450Y176719D01*
X57467Y176631D01*
X57480Y176543D01*
X57490Y176454D01*
X57496Y176365D01*
X57498Y176276D01*
X57498Y173002D01*
X57496Y172913D01*
X57490Y172824D01*
X57480Y172735D01*
X57467Y172647D01*
X57450Y172559D01*
X57428Y172472D01*
X57403Y172387D01*
X57375Y172302D01*
X57342Y172219D01*
X57306Y172137D01*
X57267Y172057D01*
X57224Y171979D01*
X57178Y171903D01*
X57128Y171828D01*
X57075Y171756D01*
X57019Y171687D01*
X56960Y171620D01*
X56899Y171555D01*
X56834Y171494D01*
X56767Y171435D01*
X56698Y171379D01*
X56626Y171326D01*
X56551Y171276D01*
X56475Y171230D01*
X56397Y171187D01*
X56317Y171148D01*
X56235Y171112D01*
X56152Y171079D01*
X56067Y171051D01*
X55982Y171026D01*
X55895Y171004D01*
X55807Y170987D01*
X55719Y170974D01*
X55630Y170964D01*
X55541Y170958D01*
X55452Y170956D01*
X53406Y170956D01*
X60965Y176685D02*
X63011Y178322D01*
X63011Y170956D01*
X60965Y170956D02*
X65057Y170956D01*
M02*
