G04 EAGLE Gerber RS-274X export*
G75*
%MOMM*%
%FSLAX34Y34*%
%LPD*%
%INSolderpaste Top*%
%IPPOS*%
%AMOC8*
5,1,8,0,0,1.08239X$1,22.5*%
G01*
%ADD10R,0.290000X0.700000*%
%ADD11R,0.812800X1.498600*%
%ADD12R,1.397000X1.701800*%
%ADD13R,1.143000X1.498600*%
%ADD14R,1.498600X1.143000*%
%ADD15R,0.800000X0.800000*%


D10*
X29088Y198188D03*
X24088Y198188D03*
X19088Y198188D03*
X14088Y198188D03*
X9088Y198188D03*
X4088Y198188D03*
X-913Y198188D03*
X-5913Y198188D03*
X-10913Y198188D03*
X-15913Y198188D03*
X-20913Y198188D03*
X-25913Y198188D03*
X-23413Y215188D03*
X-18413Y215188D03*
X-13413Y215188D03*
X-8413Y215188D03*
X-3413Y215188D03*
X1588Y215188D03*
X6588Y215188D03*
X11588Y215188D03*
X16588Y215188D03*
X21588Y215188D03*
X26588Y215188D03*
X31588Y215188D03*
D11*
X27000Y40318D03*
X16000Y40318D03*
X5000Y40318D03*
X-6000Y40318D03*
X-17000Y40318D03*
X-28000Y40318D03*
X-39000Y40318D03*
X-50000Y40318D03*
D12*
X64500Y11318D03*
X-64500Y11318D03*
D13*
X-65750Y108818D03*
D14*
X29000Y156068D03*
X6000Y156068D03*
X-60000Y156068D03*
D15*
X47188Y174625D03*
X32188Y174625D03*
M02*
